<svg class="main-svg" xmlns="http://www.w3.org/2000/svg" xmlns:xlink="http://www.w3.org/1999/xlink" width="800" height="600" style="" viewBox="0 0 800 600"><rect x="0" y="0" width="800" height="600" style="fill: rgb(255, 255, 255); fill-opacity: 1;"/><defs id="defs-168db8"><g class="clips"><clipPath id="clip168db8xyplot" class="plotclip"><rect width="601" height="420"/></clipPath><clipPath class="axesclip" id="clip168db8x"><rect x="80" y="0" width="601" height="600"/></clipPath><clipPath class="axesclip" id="clip168db8y"><rect x="0" y="100" width="800" height="420"/></clipPath><clipPath class="axesclip" id="clip168db8xy"><rect x="80" y="100" width="601" height="420"/></clipPath></g><g class="gradients"/><g class="patterns"/></defs><g class="bglayer"/><g class="layer-below"><g class="imagelayer"/><g class="shapelayer"/></g><g class="cartesianlayer"><g class="subplot xy"><g class="layer-subplot"><g class="shapelayer"/><g class="imagelayer"/></g><g class="minor-gridlayer"><g class="x"/><g class="y"/></g><g class="gridlayer"><g class="x"><path class="xgrid crisp" transform="translate(157.31,0)" d="M0,100v420" style="stroke: rgb(232, 232, 232); stroke-opacity: 1; stroke-width: 1px;"/><path class="xgrid crisp" transform="translate(234.45,0)" d="M0,100v420" style="stroke: rgb(232, 232, 232); stroke-opacity: 1; stroke-width: 1px;"/><path class="xgrid crisp" transform="translate(311.58000000000004,0)" d="M0,100v420" style="stroke: rgb(232, 232, 232); stroke-opacity: 1; stroke-width: 1px;"/><path class="xgrid crisp" transform="translate(388.71,0)" d="M0,100v420" style="stroke: rgb(232, 232, 232); stroke-opacity: 1; stroke-width: 1px;"/><path class="xgrid crisp" transform="translate(465.85,0)" d="M0,100v420" style="stroke: rgb(232, 232, 232); stroke-opacity: 1; stroke-width: 1px;"/><path class="xgrid crisp" transform="translate(542.98,0)" d="M0,100v420" style="stroke: rgb(232, 232, 232); stroke-opacity: 1; stroke-width: 1px;"/><path class="xgrid crisp" transform="translate(620.12,0)" d="M0,100v420" style="stroke: rgb(232, 232, 232); stroke-opacity: 1; stroke-width: 1px;"/></g><g class="y"/></g><g class="zerolinelayer"/><path class="xlines-below"/><path class="ylines-below"/><g class="overlines-below"/><g class="xaxislayer-below"/><g class="yaxislayer-below"/><g class="overaxes-below"/><g class="plot" transform="translate(80,100)" clip-path="url(#clip168db8xyplot)"><g class="scatterlayer mlayer"><g class="trace scatter trace9a4030" style="stroke-miterlimit: 2; opacity: 1;"><g class="fills"/><g class="errorbars"/><g class="lines"/><g class="points"><path class="point" transform="translate(34.42,357)" d="M4.55,0L0,4.55L-4.55,0L0,-4.55Z" style="opacity: 1; stroke-width: 1.5px; fill: rgb(128, 128, 128); fill-opacity: 1; stroke: rgb(128, 128, 128); stroke-opacity: 1;"/><path class="point" transform="translate(167.02,168)" d="M4.55,0L0,4.55L-4.55,0L0,-4.55Z" style="opacity: 1; stroke-width: 1.5px; fill: rgb(128, 128, 128); fill-opacity: 1; stroke: rgb(128, 128, 128); stroke-opacity: 1;"/><path class="point" transform="translate(161,168)" d="M4.55,0L0,4.55L-4.55,0L0,-4.55Z" style="opacity: 1; stroke-width: 1.5px; fill: rgb(128, 128, 128); fill-opacity: 1; stroke: rgb(128, 128, 128); stroke-opacity: 1;"/></g><g class="text"/></g><g class="trace scatter trace0e6670" style="stroke-miterlimit: 2; opacity: 1;"><g class="fills"/><g class="errorbars"/><g class="lines"/><g class="points"><path class="point" transform="translate(41.6,357)" d="M4.55,0L0,4.55L-4.55,0L0,-4.55Z" style="opacity: 1; stroke-width: 1.5px; fill: rgb(128, 128, 128); fill-opacity: 1; stroke: rgb(128, 128, 128); stroke-opacity: 1;"/><path class="point" transform="translate(41.6,239.4)" d="M4.55,0L0,4.55L-4.55,0L0,-4.55Z" style="opacity: 1; stroke-width: 1.5px; fill: rgb(128, 128, 128); fill-opacity: 1; stroke: rgb(128, 128, 128); stroke-opacity: 1;"/><path class="point" transform="translate(313.11,84)" d="M4.55,0L0,4.55L-4.55,0L0,-4.55Z" style="opacity: 1; stroke-width: 1.5px; fill: rgb(128, 128, 128); fill-opacity: 1; stroke: rgb(128, 128, 128); stroke-opacity: 1;"/><path class="point" transform="translate(298.69,84)" d="M4.55,0L0,4.55L-4.55,0L0,-4.55Z" style="opacity: 1; stroke-width: 1.5px; fill: rgb(128, 128, 128); fill-opacity: 1; stroke: rgb(128, 128, 128); stroke-opacity: 1;"/><path class="point" transform="translate(313.11,239.4)" d="M3.5,3.5L-3.5,-3.5M3.5,-3.5L-3.5,3.5" style="opacity: 1; stroke-width: 1.5px; fill: rgb(128, 128, 128); fill-opacity: 1; stroke: rgb(128, 128, 128); stroke-opacity: 1;"/><path class="point" transform="translate(298.69,239.4)" d="M3.5,3.5L-3.5,-3.5M3.5,-3.5L-3.5,3.5" style="opacity: 1; stroke-width: 1.5px; fill: rgb(128, 128, 128); fill-opacity: 1; stroke: rgb(128, 128, 128); stroke-opacity: 1;"/></g><g class="text"/></g><g class="trace scatter trace1b0409" style="stroke-miterlimit: 2; opacity: 1;"><g class="fills"/><g class="errorbars"/><g class="lines"/><g class="points"><path class="point" transform="translate(144.34,239.4)" d="M4.55,0L0,4.55L-4.55,0L0,-4.55Z" style="opacity: 1; stroke-width: 1.5px; fill: rgb(128, 128, 128); fill-opacity: 1; stroke: rgb(128, 128, 128); stroke-opacity: 1;"/></g><g class="text"/></g><g class="trace scatter traced4d6b2" style="stroke-miterlimit: 2; opacity: 1;"><g class="fills"/><g class="errorbars"/><g class="lines"/><g class="points"><path class="point" transform="translate(139.94,168)" d="M4.55,0L0,4.55L-4.55,0L0,-4.55Z" style="opacity: 1; stroke-width: 1.5px; fill: rgb(128, 128, 128); fill-opacity: 1; stroke: rgb(128, 128, 128); stroke-opacity: 1;"/><path class="point" transform="translate(99.3,168)" d="M4.55,0L0,4.55L-4.55,0L0,-4.55Z" style="opacity: 1; stroke-width: 1.5px; fill: rgb(128, 128, 128); fill-opacity: 1; stroke: rgb(128, 128, 128); stroke-opacity: 1;"/><path class="point" transform="translate(67.36,168)" d="M4.55,0L0,4.55L-4.55,0L0,-4.55Z" style="opacity: 1; stroke-width: 1.5px; fill: rgb(128, 128, 128); fill-opacity: 1; stroke: rgb(128, 128, 128); stroke-opacity: 1;"/><path class="point" transform="translate(89.34,168)" d="M4.55,0L0,4.55L-4.55,0L0,-4.55Z" style="opacity: 1; stroke-width: 1.5px; fill: rgb(128, 128, 128); fill-opacity: 1; stroke: rgb(128, 128, 128); stroke-opacity: 1;"/><path class="point" transform="translate(111.48,168)" d="M4.55,0L0,4.55L-4.55,0L0,-4.55Z" style="opacity: 1; stroke-width: 1.5px; fill: rgb(128, 128, 128); fill-opacity: 1; stroke: rgb(128, 128, 128); stroke-opacity: 1;"/><path class="point" transform="translate(111.33,168)" d="M4.55,0L0,4.55L-4.55,0L0,-4.55Z" style="opacity: 1; stroke-width: 1.5px; fill: rgb(128, 128, 128); fill-opacity: 1; stroke: rgb(128, 128, 128); stroke-opacity: 1;"/><path class="point" transform="translate(91.81,168)" d="M4.55,0L0,4.55L-4.55,0L0,-4.55Z" style="opacity: 1; stroke-width: 1.5px; fill: rgb(128, 128, 128); fill-opacity: 1; stroke: rgb(128, 128, 128); stroke-opacity: 1;"/><path class="point" transform="translate(108.32,168)" d="M4.55,0L0,4.55L-4.55,0L0,-4.55Z" style="opacity: 1; stroke-width: 1.5px; fill: rgb(128, 128, 128); fill-opacity: 1; stroke: rgb(128, 128, 128); stroke-opacity: 1;"/><path class="point" transform="translate(111.48,168)" d="M4.55,0L0,4.55L-4.55,0L0,-4.55Z" style="opacity: 1; stroke-width: 1.5px; fill: rgb(128, 128, 128); fill-opacity: 1; stroke: rgb(128, 128, 128); stroke-opacity: 1;"/><path class="point" transform="translate(191.16,168)" d="M3.5,3.5L-3.5,-3.5M3.5,-3.5L-3.5,3.5" style="opacity: 1; stroke-width: 1.5px; fill: rgb(128, 128, 128); fill-opacity: 1; stroke: rgb(128, 128, 128); stroke-opacity: 1;"/><path class="point" transform="translate(333.86,168)" d="M3.5,3.5L-3.5,-3.5M3.5,-3.5L-3.5,3.5" style="opacity: 1; stroke-width: 1.5px; fill: rgb(128, 128, 128); fill-opacity: 1; stroke: rgb(128, 128, 128); stroke-opacity: 1;"/><path class="point" transform="translate(352.99,168)" d="M3.5,3.5L-3.5,-3.5M3.5,-3.5L-3.5,3.5" style="opacity: 1; stroke-width: 1.5px; fill: rgb(128, 128, 128); fill-opacity: 1; stroke: rgb(128, 128, 128); stroke-opacity: 1;"/><path class="point" transform="translate(566.58,168)" d="M3.5,3.5L-3.5,-3.5M3.5,-3.5L-3.5,3.5" style="opacity: 1; stroke-width: 1.5px; fill: rgb(128, 128, 128); fill-opacity: 1; stroke: rgb(128, 128, 128); stroke-opacity: 1;"/><path class="point" transform="translate(278.56,168)" d="M3.5,3.5L-3.5,-3.5M3.5,-3.5L-3.5,3.5" style="opacity: 1; stroke-width: 1.5px; fill: rgb(128, 128, 128); fill-opacity: 1; stroke: rgb(128, 128, 128); stroke-opacity: 1;"/><path class="point" transform="translate(301.08,168)" d="M3.5,3.5L-3.5,-3.5M3.5,-3.5L-3.5,3.5" style="opacity: 1; stroke-width: 1.5px; fill: rgb(128, 128, 128); fill-opacity: 1; stroke: rgb(128, 128, 128); stroke-opacity: 1;"/></g><g class="text"/></g><g class="trace scatter trace719eb7" style="stroke-miterlimit: 2; opacity: 1;"><g class="fills"/><g class="errorbars"/><g class="lines"/><g class="points"><path class="point" transform="translate(137.09,134.4)" d="M4.55,0L0,4.55L-4.55,0L0,-4.55Z" style="opacity: 1; stroke-width: 1.5px; fill: rgb(128, 128, 128); fill-opacity: 1; stroke: rgb(128, 128, 128); stroke-opacity: 1;"/><path class="point" transform="translate(120.89,134.4)" d="M4.55,0L0,4.55L-4.55,0L0,-4.55Z" style="opacity: 1; stroke-width: 1.5px; fill: rgb(128, 128, 128); fill-opacity: 1; stroke: rgb(128, 128, 128); stroke-opacity: 1;"/><path class="point" transform="translate(109.17,134.4)" d="M4.55,0L0,4.55L-4.55,0L0,-4.55Z" style="opacity: 1; stroke-width: 1.5px; fill: rgb(128, 128, 128); fill-opacity: 1; stroke: rgb(128, 128, 128); stroke-opacity: 1;"/><path class="point" transform="translate(79.39,134.4)" d="M4.55,0L0,4.55L-4.55,0L0,-4.55Z" style="opacity: 1; stroke-width: 1.5px; fill: rgb(128, 128, 128); fill-opacity: 1; stroke: rgb(128, 128, 128); stroke-opacity: 1;"/><path class="point" transform="translate(68.83,134.4)" d="M4.55,0L0,4.55L-4.55,0L0,-4.55Z" style="opacity: 1; stroke-width: 1.5px; fill: rgb(128, 128, 128); fill-opacity: 1; stroke: rgb(128, 128, 128); stroke-opacity: 1;"/><path class="point" transform="translate(180.75,67.2)" d="M4.55,0L0,4.55L-4.55,0L0,-4.55Z" style="opacity: 1; stroke-width: 1.5px; fill: rgb(128, 128, 128); fill-opacity: 1; stroke: rgb(128, 128, 128); stroke-opacity: 1;"/><path class="point" transform="translate(180.75,67.2)" d="M4.55,0L0,4.55L-4.55,0L0,-4.55Z" style="opacity: 1; stroke-width: 1.5px; fill: rgb(128, 128, 128); fill-opacity: 1; stroke: rgb(128, 128, 128); stroke-opacity: 1;"/><path class="point" transform="translate(172.42,67.2)" d="M4.55,0L0,4.55L-4.55,0L0,-4.55Z" style="opacity: 1; stroke-width: 1.5px; fill: rgb(128, 128, 128); fill-opacity: 1; stroke: rgb(128, 128, 128); stroke-opacity: 1;"/><path class="point" transform="translate(180.75,134.4)" d="M3.5,3.5L-3.5,-3.5M3.5,-3.5L-3.5,3.5" style="opacity: 1; stroke-width: 1.5px; fill: rgb(128, 128, 128); fill-opacity: 1; stroke: rgb(128, 128, 128); stroke-opacity: 1;"/><path class="point" transform="translate(180.75,134.4)" d="M3.5,3.5L-3.5,-3.5M3.5,-3.5L-3.5,3.5" style="opacity: 1; stroke-width: 1.5px; fill: rgb(128, 128, 128); fill-opacity: 1; stroke: rgb(128, 128, 128); stroke-opacity: 1;"/><path class="point" transform="translate(172.42,134.4)" d="M3.5,3.5L-3.5,-3.5M3.5,-3.5L-3.5,3.5" style="opacity: 1; stroke-width: 1.5px; fill: rgb(128, 128, 128); fill-opacity: 1; stroke: rgb(128, 128, 128); stroke-opacity: 1;"/></g><g class="text"/></g></g></g><g class="overplot"/><path class="xlines-above crisp" d="M79,520.5H681" style="fill: none; stroke-width: 1px; stroke: rgb(36, 36, 36); stroke-opacity: 1;"/><path class="ylines-above crisp" d="M79.5,100V520" style="fill: none; stroke-width: 1px; stroke: rgb(36, 36, 36); stroke-opacity: 1;"/><g class="overlines-above"/><g class="xaxislayer-above"><path class="xtick ticks crisp" d="M0,521v5" transform="translate(80.18,0)" style="stroke: rgb(68, 68, 68); stroke-opacity: 1; stroke-width: 1px;"/><path class="xtick ticks crisp" d="M0,521v5" transform="translate(157.31,0)" style="stroke: rgb(68, 68, 68); stroke-opacity: 1; stroke-width: 1px;"/><path class="xtick ticks crisp" d="M0,521v5" transform="translate(234.45,0)" style="stroke: rgb(68, 68, 68); stroke-opacity: 1; stroke-width: 1px;"/><path class="xtick ticks crisp" d="M0,521v5" transform="translate(311.58000000000004,0)" style="stroke: rgb(68, 68, 68); stroke-opacity: 1; stroke-width: 1px;"/><path class="xtick ticks crisp" d="M0,521v5" transform="translate(388.71,0)" style="stroke: rgb(68, 68, 68); stroke-opacity: 1; stroke-width: 1px;"/><path class="xtick ticks crisp" d="M0,521v5" transform="translate(465.85,0)" style="stroke: rgb(68, 68, 68); stroke-opacity: 1; stroke-width: 1px;"/><path class="xtick ticks crisp" d="M0,521v5" transform="translate(542.98,0)" style="stroke: rgb(68, 68, 68); stroke-opacity: 1; stroke-width: 1px;"/><path class="xtick ticks crisp" d="M0,521v5" transform="translate(620.12,0)" style="stroke: rgb(68, 68, 68); stroke-opacity: 1; stroke-width: 1px;"/><g class="xtick"><text text-anchor="middle" x="0" y="540.4" transform="translate(80.18,0)" style="font-family: 'Open Sans', verdana, arial, sans-serif; font-size: 12px; fill: rgb(36, 36, 36); fill-opacity: 1; white-space: pre; opacity: 1;">0</text></g><g class="xtick"><text text-anchor="middle" x="0" y="540.4" style="font-family: 'Open Sans', verdana, arial, sans-serif; font-size: 12px; fill: rgb(36, 36, 36); fill-opacity: 1; white-space: pre; opacity: 1;" transform="translate(157.31,0)">1000</text></g><g class="xtick"><text text-anchor="middle" x="0" y="540.4" style="font-family: 'Open Sans', verdana, arial, sans-serif; font-size: 12px; fill: rgb(36, 36, 36); fill-opacity: 1; white-space: pre; opacity: 1;" transform="translate(234.45,0)">2000</text></g><g class="xtick"><text text-anchor="middle" x="0" y="540.4" style="font-family: 'Open Sans', verdana, arial, sans-serif; font-size: 12px; fill: rgb(36, 36, 36); fill-opacity: 1; white-space: pre; opacity: 1;" transform="translate(311.58000000000004,0)">3000</text></g><g class="xtick"><text text-anchor="middle" x="0" y="540.4" style="font-family: 'Open Sans', verdana, arial, sans-serif; font-size: 12px; fill: rgb(36, 36, 36); fill-opacity: 1; white-space: pre; opacity: 1;" transform="translate(388.71,0)">4000</text></g><g class="xtick"><text text-anchor="middle" x="0" y="540.4" style="font-family: 'Open Sans', verdana, arial, sans-serif; font-size: 12px; fill: rgb(36, 36, 36); fill-opacity: 1; white-space: pre; opacity: 1;" transform="translate(465.85,0)">5000</text></g><g class="xtick"><text text-anchor="middle" x="0" y="540.4" style="font-family: 'Open Sans', verdana, arial, sans-serif; font-size: 12px; fill: rgb(36, 36, 36); fill-opacity: 1; white-space: pre; opacity: 1;" transform="translate(542.98,0)">6000</text></g><g class="xtick"><text text-anchor="middle" x="0" y="540.4" style="font-family: 'Open Sans', verdana, arial, sans-serif; font-size: 12px; fill: rgb(36, 36, 36); fill-opacity: 1; white-space: pre; opacity: 1;" transform="translate(620.12,0)">7000</text></g></g><g class="yaxislayer-above"><path class="ytick ticks crisp" d="M79,0h-5" transform="translate(0,520)" style="stroke: rgb(68, 68, 68); stroke-opacity: 1; stroke-width: 1px;"/><path class="ytick ticks crisp" d="M79,0h-5" transform="translate(0,436)" style="stroke: rgb(68, 68, 68); stroke-opacity: 1; stroke-width: 1px;"/><path class="ytick ticks crisp" d="M79,0h-5" transform="translate(0,352)" style="stroke: rgb(68, 68, 68); stroke-opacity: 1; stroke-width: 1px;"/><path class="ytick ticks crisp" d="M79,0h-5" transform="translate(0,268)" style="stroke: rgb(68, 68, 68); stroke-opacity: 1; stroke-width: 1px;"/><path class="ytick ticks crisp" d="M79,0h-5" transform="translate(0,184)" style="stroke: rgb(68, 68, 68); stroke-opacity: 1; stroke-width: 1px;"/><path class="ytick ticks crisp" d="M79,0h-5" transform="translate(0,100)" style="stroke: rgb(68, 68, 68); stroke-opacity: 1; stroke-width: 1px;"/><g class="ytick"><text text-anchor="end" x="71.6" y="4.199999999999999" transform="translate(0,520)" style="font-family: 'Open Sans', verdana, arial, sans-serif; font-size: 12px; fill: rgb(36, 36, 36); fill-opacity: 1; white-space: pre; opacity: 1;">100</text></g><g class="ytick"><text text-anchor="end" x="71.6" y="4.199999999999999" style="font-family: 'Open Sans', verdana, arial, sans-serif; font-size: 12px; fill: rgb(36, 36, 36); fill-opacity: 1; white-space: pre; opacity: 1;" transform="translate(0,436)">80</text></g><g class="ytick"><text text-anchor="end" x="71.6" y="4.199999999999999" style="font-family: 'Open Sans', verdana, arial, sans-serif; font-size: 12px; fill: rgb(36, 36, 36); fill-opacity: 1; white-space: pre; opacity: 1;" transform="translate(0,352)">60</text></g><g class="ytick"><text text-anchor="end" x="71.6" y="4.199999999999999" style="font-family: 'Open Sans', verdana, arial, sans-serif; font-size: 12px; fill: rgb(36, 36, 36); fill-opacity: 1; white-space: pre; opacity: 1;" transform="translate(0,268)">40</text></g><g class="ytick"><text text-anchor="end" x="71.6" y="4.199999999999999" style="font-family: 'Open Sans', verdana, arial, sans-serif; font-size: 12px; fill: rgb(36, 36, 36); fill-opacity: 1; white-space: pre; opacity: 1;" transform="translate(0,184)">20</text></g><g class="ytick"><text text-anchor="end" x="71.6" y="4.199999999999999" style="font-family: 'Open Sans', verdana, arial, sans-serif; font-size: 12px; fill: rgb(36, 36, 36); fill-opacity: 1; white-space: pre; opacity: 1;" transform="translate(0,100)">0</text></g></g><g class="overaxes-above"/></g></g><g class="polarlayer"/><g class="smithlayer"/><g class="ternarylayer"/><g class="geolayer"/><g class="funnelarealayer"/><g class="pielayer"/><g class="iciclelayer"/><g class="treemaplayer"/><g class="sunburstlayer"/><g class="glimages"/><defs id="topdefs-168db8"><g class="clips"/><clipPath id="legend168db8"><rect width="95" height="105" x="0" y="0"/></clipPath></defs><g class="layer-above"><g class="imagelayer"/><g class="shapelayer"/></g><g class="infolayer"><g class="legend" pointer-events="all" transform="translate(693.02,100)"><rect class="bg" shape-rendering="crispEdges" width="95" height="105" x="0" y="0" style="stroke: rgb(68, 68, 68); stroke-opacity: 1; fill: rgb(255, 255, 255); fill-opacity: 1; stroke-width: 0px;"/><g class="scrollbox" transform="" clip-path="url(#legend168db8)"><g class="groups"><g class="traces" transform="translate(0,14.5)" style="opacity: 1;"><text class="legendtext" text-anchor="start" x="40" y="4.680000000000001" style="font-family: 'Open Sans', verdana, arial, sans-serif; font-size: 12px; fill: rgb(36, 36, 36); fill-opacity: 1; white-space: pre;">IVT</text><g class="layers" style="opacity: 1;"><g class="legendfill"/><g class="legendlines"/><g class="legendsymbols"><g class="legendpoints"><path class="scatterpts" transform="translate(20,0)" d="M4.55,0L0,4.55L-4.55,0L0,-4.55Z" style="opacity: 1; stroke-width: 1.5px; fill: rgb(128, 128, 128); fill-opacity: 1; stroke: rgb(128, 128, 128); stroke-opacity: 1;"/></g></g></g><rect class="legendtoggle" x="0" y="-9.5" width="89.03125" height="19" style="fill: rgb(0, 0, 0); fill-opacity: 0;"/></g><g class="traces" transform="translate(0,33.5)" style="opacity: 1;"><text class="legendtext" text-anchor="start" x="40" y="4.680000000000001" style="font-family: 'Open Sans', verdana, arial, sans-serif; font-size: 12px; fill: rgb(36, 36, 36); fill-opacity: 1; white-space: pre;">HIV</text><g class="layers" style="opacity: 1;"><g class="legendfill"/><g class="legendlines"/><g class="legendsymbols"><g class="legendpoints"><path class="scatterpts" transform="translate(20,0)" d="M4.55,0L0,4.55L-4.55,0L0,-4.55Z" style="opacity: 1; stroke-width: 1.5px; fill: rgb(128, 128, 128); fill-opacity: 1; stroke: rgb(128, 128, 128); stroke-opacity: 1;"/></g></g></g><rect class="legendtoggle" x="0" y="-9.5" width="89.03125" height="19" style="fill: rgb(0, 0, 0); fill-opacity: 0;"/></g><g class="traces" transform="translate(0,52.5)" style="opacity: 1;"><text class="legendtext" text-anchor="start" x="40" y="4.680000000000001" style="font-family: 'Open Sans', verdana, arial, sans-serif; font-size: 12px; fill: rgb(36, 36, 36); fill-opacity: 1; white-space: pre;">rRNA</text><g class="layers" style="opacity: 1;"><g class="legendfill"/><g class="legendlines"/><g class="legendsymbols"><g class="legendpoints"><path class="scatterpts" transform="translate(20,0)" d="M4.55,0L0,4.55L-4.55,0L0,-4.55Z" style="opacity: 1; stroke-width: 1.5px; fill: rgb(128, 128, 128); fill-opacity: 1; stroke: rgb(128, 128, 128); stroke-opacity: 1;"/></g></g></g><rect class="legendtoggle" x="0" y="-9.5" width="89.03125" height="19" style="fill: rgb(0, 0, 0); fill-opacity: 0;"/></g><g class="traces" transform="translate(0,71.5)" style="opacity: 1;"><text class="legendtext" text-anchor="start" x="40" y="4.680000000000001" style="font-family: 'Open Sans', verdana, arial, sans-serif; font-size: 12px; fill: rgb(36, 36, 36); fill-opacity: 1; white-space: pre;">mRNA</text><g class="layers" style="opacity: 1;"><g class="legendfill"/><g class="legendlines"/><g class="legendsymbols"><g class="legendpoints"><path class="scatterpts" transform="translate(20,0)" d="M4.55,0L0,4.55L-4.55,0L0,-4.55Z" style="opacity: 1; stroke-width: 1.5px; fill: rgb(128, 128, 128); fill-opacity: 1; stroke: rgb(128, 128, 128); stroke-opacity: 1;"/></g></g></g><rect class="legendtoggle" x="0" y="-9.5" width="89.03125" height="19" style="fill: rgb(0, 0, 0); fill-opacity: 0;"/></g><g class="traces" transform="translate(0,90.5)" style="opacity: 1;"><text class="legendtext" text-anchor="start" x="40" y="4.680000000000001" style="font-family: 'Open Sans', verdana, arial, sans-serif; font-size: 12px; fill: rgb(36, 36, 36); fill-opacity: 1; white-space: pre;">Influenza</text><g class="layers" style="opacity: 1;"><g class="legendfill"/><g class="legendlines"/><g class="legendsymbols"><g class="legendpoints"><path class="scatterpts" transform="translate(20,0)" d="M4.55,0L0,4.55L-4.55,0L0,-4.55Z" style="opacity: 1; stroke-width: 1.5px; fill: rgb(128, 128, 128); fill-opacity: 1; stroke: rgb(128, 128, 128); stroke-opacity: 1;"/></g></g></g><rect class="legendtoggle" x="0" y="-9.5" width="89.03125" height="19" style="fill: rgb(0, 0, 0); fill-opacity: 0;"/></g></g></g><rect class="scrollbar" rx="20" ry="3" width="0" height="0" x="0" y="0" style="fill: rgb(128, 139, 164); fill-opacity: 1;"/></g><g class="g-gtitle"><text class="gtitle" x="40" y="50" text-anchor="start" dy="0em" style="font-family: 'Open Sans', verdana, arial, sans-serif; font-size: 17px; fill: rgb(36, 36, 36); opacity: 1; font-weight: normal; white-space: pre;">Working (square) and non-amplifying (cross) conditions</text></g><g class="g-xtitle"><text class="xtitle" x="380.5" y="568.20625" text-anchor="middle" style="font-family: 'Open Sans', verdana, arial, sans-serif; font-size: 14px; fill: rgb(36, 36, 36); opacity: 1; font-weight: normal; white-space: pre;">Amplicon length (bp)</text></g><g class="g-ytitle"><text class="ytitle" transform="rotate(-90,26.778125000000003,310)" x="26.778125000000003" y="310" text-anchor="middle" style="font-family: 'Open Sans', verdana, arial, sans-serif; font-size: 14px; fill: rgb(36, 36, 36); opacity: 1; font-weight: normal; white-space: pre;">DMS concentration (mM)</text></g></g></svg>