<svg class="main-svg" xmlns="http://www.w3.org/2000/svg" xmlns:xlink="http://www.w3.org/1999/xlink" width="800" height="600" style="" viewBox="0 0 800 600"><rect x="0" y="0" width="800" height="600" style="fill: rgb(255, 255, 255); fill-opacity: 1;"/><defs id="defs-4cd1e0"><g class="clips"><clipPath id="clip4cd1e0xyplot" class="plotclip"><rect width="601" height="420"/></clipPath><clipPath class="axesclip" id="clip4cd1e0x"><rect x="80" y="0" width="601" height="600"/></clipPath><clipPath class="axesclip" id="clip4cd1e0y"><rect x="0" y="100" width="800" height="420"/></clipPath><clipPath class="axesclip" id="clip4cd1e0xy"><rect x="80" y="100" width="601" height="420"/></clipPath></g><g class="gradients"/><g class="patterns"/></defs><g class="bglayer"/><g class="layer-below"><g class="imagelayer"/><g class="shapelayer"/></g><g class="cartesianlayer"><g class="subplot xy"><g class="layer-subplot"><g class="shapelayer"/><g class="imagelayer"/></g><g class="minor-gridlayer"><g class="x"/><g class="y"/></g><g class="gridlayer"><g class="x"/><g class="y"><path class="ygrid crisp" transform="translate(0,465.39)" d="M80,0h601" style="stroke: rgb(232, 232, 232); stroke-opacity: 1; stroke-width: 1px;"/><path class="ygrid crisp" transform="translate(0,411.69)" d="M80,0h601" style="stroke: rgb(232, 232, 232); stroke-opacity: 1; stroke-width: 1px;"/><path class="ygrid crisp" transform="translate(0,357.98)" d="M80,0h601" style="stroke: rgb(232, 232, 232); stroke-opacity: 1; stroke-width: 1px;"/><path class="ygrid crisp" transform="translate(0,304.28)" d="M80,0h601" style="stroke: rgb(232, 232, 232); stroke-opacity: 1; stroke-width: 1px;"/><path class="ygrid crisp" transform="translate(0,250.58)" d="M80,0h601" style="stroke: rgb(232, 232, 232); stroke-opacity: 1; stroke-width: 1px;"/><path class="ygrid crisp" transform="translate(0,196.87)" d="M80,0h601" style="stroke: rgb(232, 232, 232); stroke-opacity: 1; stroke-width: 1px;"/><path class="ygrid crisp" transform="translate(0,143.17000000000002)" d="M80,0h601" style="stroke: rgb(232, 232, 232); stroke-opacity: 1; stroke-width: 1px;"/></g></g><g class="zerolinelayer"/><path class="xlines-below"/><path class="ylines-below"/><g class="overlines-below"/><g class="xaxislayer-below"/><g class="yaxislayer-below"/><g class="overaxes-below"/><g class="plot" transform="translate(80,100)" clip-path="url(#clip4cd1e0xyplot)"><g class="scatterlayer mlayer"><g class="trace scatter trace23cc9d" style="stroke-miterlimit: 2; opacity: 1;"><g class="fills"/><g class="errorbars"/><g class="lines"/><g class="points"><path class="point" transform="translate(510.85,395.25)" d="M-3.46,1.5H3.46L0,-3Z" style="opacity: 1; stroke-width: 1.5px; fill: rgb(0, 128, 0); fill-opacity: 1; stroke: rgb(0, 128, 0); stroke-opacity: 1;"/><path class="point" transform="translate(240.4,302.93)" d="M-3.46,1.5H3.46L0,-3Z" style="opacity: 1; stroke-width: 1.5px; fill: rgb(0, 128, 0); fill-opacity: 1; stroke: rgb(0, 128, 0); stroke-opacity: 1;"/><path class="point" transform="translate(240.4,307.12)" d="M-3.46,1.5H3.46L0,-3Z" style="opacity: 1; stroke-width: 1.5px; fill: rgb(0, 128, 0); fill-opacity: 1; stroke: rgb(0, 128, 0); stroke-opacity: 1;"/></g><g class="text"/></g><g class="trace scatter trace102a8d" style="stroke-miterlimit: 2; opacity: 1;"><g class="fills"/><g class="errorbars"/><g class="lines"/><g class="points"><path class="point" transform="translate(510.85,390.26)" d="M3.9,0L0,3.9L-3.9,0L0,-3.9Z" style="opacity: 1; stroke-width: 1.5px; fill: rgb(0, 128, 0); fill-opacity: 1; stroke: rgb(0, 128, 0); stroke-opacity: 1;"/><path class="point" transform="translate(342.57,390.26)" d="M3.9,0L0,3.9L-3.9,0L0,-3.9Z" style="opacity: 1; stroke-width: 1.5px; fill: rgb(0, 128, 0); fill-opacity: 1; stroke: rgb(0, 128, 0); stroke-opacity: 1;"/><path class="point" transform="translate(120.2,201.22)" d="M3.9,0L0,3.9L-3.9,0L0,-3.9Z" style="opacity: 1; stroke-width: 1.5px; fill: rgb(0, 128, 0); fill-opacity: 1; stroke: rgb(0, 128, 0); stroke-opacity: 1;"/><path class="point" transform="translate(120.2,211.26)" d="M3.9,0L0,3.9L-3.9,0L0,-3.9Z" style="opacity: 1; stroke-width: 1.5px; fill: rgb(0, 128, 0); fill-opacity: 1; stroke: rgb(0, 128, 0); stroke-opacity: 1;"/><path class="point" transform="translate(342.57,201.22)" d="M3.9,0L0,3.9L-3.9,0L0,-3.9Z" style="opacity: 1; stroke-width: 1.5px; fill: rgb(255, 0, 0); fill-opacity: 1; stroke: rgb(255, 0, 0); stroke-opacity: 1;"/><path class="point" transform="translate(342.57,211.26)" d="M3.9,0L0,3.9L-3.9,0L0,-3.9Z" style="opacity: 1; stroke-width: 1.5px; fill: rgb(255, 0, 0); fill-opacity: 1; stroke: rgb(255, 0, 0); stroke-opacity: 1;"/></g><g class="text"/></g><g class="trace scatter traceb8d2b3" style="stroke-miterlimit: 2; opacity: 1;"><g class="fills"/><g class="errorbars"/><g class="lines"/><g class="points"><path class="point" transform="translate(342.57,318.72)" d="M0.94,-1.3H3.99L1.52,0.5L2.47,3.4L0,1.6L-2.47,3.4L-1.52,0.5L-3.99,-1.3H-0.94L0,-4.2Z" style="opacity: 1; stroke-width: 1.5px; fill: rgb(0, 128, 0); fill-opacity: 1; stroke: rgb(0, 128, 0); stroke-opacity: 1;"/></g><g class="text"/></g><g class="trace scatter trace25779f" style="stroke-miterlimit: 2; opacity: 1;"><g class="fills"/><g class="errorbars"/><g class="lines"/><g class="points"><path class="point" transform="translate(240.4,321.78)" d="M3,0A3,3 0 1,1 0,-3A3,3 0 0,1 3,0Z" style="opacity: 1; stroke-width: 1.5px; fill: rgb(0, 128, 0); fill-opacity: 1; stroke: rgb(0, 128, 0); stroke-opacity: 1;"/><path class="point" transform="translate(240.4,350.09)" d="M3,0A3,3 0 1,1 0,-3A3,3 0 0,1 3,0Z" style="opacity: 1; stroke-width: 1.5px; fill: rgb(0, 128, 0); fill-opacity: 1; stroke: rgb(0, 128, 0); stroke-opacity: 1;"/><path class="point" transform="translate(240.4,372.32)" d="M3,0A3,3 0 1,1 0,-3A3,3 0 0,1 3,0Z" style="opacity: 1; stroke-width: 1.5px; fill: rgb(0, 128, 0); fill-opacity: 1; stroke: rgb(0, 128, 0); stroke-opacity: 1;"/><path class="point" transform="translate(240.4,357.01)" d="M3,0A3,3 0 1,1 0,-3A3,3 0 0,1 3,0Z" style="opacity: 1; stroke-width: 1.5px; fill: rgb(0, 128, 0); fill-opacity: 1; stroke: rgb(0, 128, 0); stroke-opacity: 1;"/><path class="point" transform="translate(240.4,341.6)" d="M3,0A3,3 0 1,1 0,-3A3,3 0 0,1 3,0Z" style="opacity: 1; stroke-width: 1.5px; fill: rgb(0, 128, 0); fill-opacity: 1; stroke: rgb(0, 128, 0); stroke-opacity: 1;"/><path class="point" transform="translate(240.4,341.71)" d="M3,0A3,3 0 1,1 0,-3A3,3 0 0,1 3,0Z" style="opacity: 1; stroke-width: 1.5px; fill: rgb(0, 128, 0); fill-opacity: 1; stroke: rgb(0, 128, 0); stroke-opacity: 1;"/><path class="point" transform="translate(240.4,355.29)" d="M3,0A3,3 0 1,1 0,-3A3,3 0 0,1 3,0Z" style="opacity: 1; stroke-width: 1.5px; fill: rgb(0, 128, 0); fill-opacity: 1; stroke: rgb(0, 128, 0); stroke-opacity: 1;"/><path class="point" transform="translate(240.4,343.8)" d="M3,0A3,3 0 1,1 0,-3A3,3 0 0,1 3,0Z" style="opacity: 1; stroke-width: 1.5px; fill: rgb(0, 128, 0); fill-opacity: 1; stroke: rgb(0, 128, 0); stroke-opacity: 1;"/><path class="point" transform="translate(240.4,341.6)" d="M3,0A3,3 0 1,1 0,-3A3,3 0 0,1 3,0Z" style="opacity: 1; stroke-width: 1.5px; fill: rgb(0, 128, 0); fill-opacity: 1; stroke: rgb(0, 128, 0); stroke-opacity: 1;"/><path class="point" transform="translate(240.4,286.12)" d="M3,0A3,3 0 1,1 0,-3A3,3 0 0,1 3,0Z" style="opacity: 1; stroke-width: 1.5px; fill: rgb(255, 0, 0); fill-opacity: 1; stroke: rgb(255, 0, 0); stroke-opacity: 1;"/><path class="point" transform="translate(240.4,186.77)" d="M3,0A3,3 0 1,1 0,-3A3,3 0 0,1 3,0Z" style="opacity: 1; stroke-width: 1.5px; fill: rgb(255, 0, 0); fill-opacity: 1; stroke: rgb(255, 0, 0); stroke-opacity: 1;"/><path class="point" transform="translate(240.4,173.45)" d="M3,0A3,3 0 1,1 0,-3A3,3 0 0,1 3,0Z" style="opacity: 1; stroke-width: 1.5px; fill: rgb(255, 0, 0); fill-opacity: 1; stroke: rgb(255, 0, 0); stroke-opacity: 1;"/><path class="point" transform="translate(240.4,24.75)" d="M3,0A3,3 0 1,1 0,-3A3,3 0 0,1 3,0Z" style="opacity: 1; stroke-width: 1.5px; fill: rgb(255, 0, 0); fill-opacity: 1; stroke: rgb(255, 0, 0); stroke-opacity: 1;"/><path class="point" transform="translate(240.4,225.28)" d="M3,0A3,3 0 1,1 0,-3A3,3 0 0,1 3,0Z" style="opacity: 1; stroke-width: 1.5px; fill: rgb(255, 0, 0); fill-opacity: 1; stroke: rgb(255, 0, 0); stroke-opacity: 1;"/><path class="point" transform="translate(240.4,209.6)" d="M3,0A3,3 0 1,1 0,-3A3,3 0 0,1 3,0Z" style="opacity: 1; stroke-width: 1.5px; fill: rgb(255, 0, 0); fill-opacity: 1; stroke: rgb(255, 0, 0); stroke-opacity: 1;"/></g><g class="text"/></g><g class="trace scatter trace87e552" style="stroke-miterlimit: 2; opacity: 1;"><g class="fills"/><g class="errorbars"/><g class="lines"/><g class="points"><path class="point" transform="translate(192.32,323.77)" d="M0,3.6V-3.6M3.6,0H-3.6M2.55,2.55L-2.55,-2.55M2.55,-2.55L-2.55,2.55" style="opacity: 1; stroke-width: 1.5px; fill: rgb(0, 128, 0); fill-opacity: 1; stroke: rgb(0, 128, 0); stroke-opacity: 1;"/><path class="point" transform="translate(192.32,335.05)" d="M0,3.6V-3.6M3.6,0H-3.6M2.55,2.55L-2.55,-2.55M2.55,-2.55L-2.55,2.55" style="opacity: 1; stroke-width: 1.5px; fill: rgb(0, 128, 0); fill-opacity: 1; stroke: rgb(0, 128, 0); stroke-opacity: 1;"/><path class="point" transform="translate(192.32,343.21)" d="M0,3.6V-3.6M3.6,0H-3.6M2.55,2.55L-2.55,-2.55M2.55,-2.55L-2.55,2.55" style="opacity: 1; stroke-width: 1.5px; fill: rgb(0, 128, 0); fill-opacity: 1; stroke: rgb(0, 128, 0); stroke-opacity: 1;"/><path class="point" transform="translate(192.32,363.94)" d="M0,3.6V-3.6M3.6,0H-3.6M2.55,2.55L-2.55,-2.55M2.55,-2.55L-2.55,2.55" style="opacity: 1; stroke-width: 1.5px; fill: rgb(0, 128, 0); fill-opacity: 1; stroke: rgb(0, 128, 0); stroke-opacity: 1;"/><path class="point" transform="translate(192.32,371.3)" d="M0,3.6V-3.6M3.6,0H-3.6M2.55,2.55L-2.55,-2.55M2.55,-2.55L-2.55,2.55" style="opacity: 1; stroke-width: 1.5px; fill: rgb(0, 128, 0); fill-opacity: 1; stroke: rgb(0, 128, 0); stroke-opacity: 1;"/><path class="point" transform="translate(96.16,293.37)" d="M0,3.6V-3.6M3.6,0H-3.6M2.55,2.55L-2.55,-2.55M2.55,-2.55L-2.55,2.55" style="opacity: 1; stroke-width: 1.5px; fill: rgb(0, 128, 0); fill-opacity: 1; stroke: rgb(0, 128, 0); stroke-opacity: 1;"/><path class="point" transform="translate(96.16,293.37)" d="M0,3.6V-3.6M3.6,0H-3.6M2.55,2.55L-2.55,-2.55M2.55,-2.55L-2.55,2.55" style="opacity: 1; stroke-width: 1.5px; fill: rgb(0, 128, 0); fill-opacity: 1; stroke: rgb(0, 128, 0); stroke-opacity: 1;"/><path class="point" transform="translate(96.16,299.17)" d="M0,3.6V-3.6M3.6,0H-3.6M2.55,2.55L-2.55,-2.55M2.55,-2.55L-2.55,2.55" style="opacity: 1; stroke-width: 1.5px; fill: rgb(0, 128, 0); fill-opacity: 1; stroke: rgb(0, 128, 0); stroke-opacity: 1;"/><path class="point" transform="translate(192.32,293.37)" d="M0,3.6V-3.6M3.6,0H-3.6M2.55,2.55L-2.55,-2.55M2.55,-2.55L-2.55,2.55" style="opacity: 1; stroke-width: 1.5px; fill: rgb(255, 0, 0); fill-opacity: 1; stroke: rgb(255, 0, 0); stroke-opacity: 1;"/><path class="point" transform="translate(192.32,293.37)" d="M0,3.6V-3.6M3.6,0H-3.6M2.55,2.55L-2.55,-2.55M2.55,-2.55L-2.55,2.55" style="opacity: 1; stroke-width: 1.5px; fill: rgb(255, 0, 0); fill-opacity: 1; stroke: rgb(255, 0, 0); stroke-opacity: 1;"/><path class="point" transform="translate(192.32,299.17)" d="M0,3.6V-3.6M3.6,0H-3.6M2.55,2.55L-2.55,-2.55M2.55,-2.55L-2.55,2.55" style="opacity: 1; stroke-width: 1.5px; fill: rgb(255, 0, 0); fill-opacity: 1; stroke: rgb(255, 0, 0); stroke-opacity: 1;"/></g><g class="text"/></g></g></g><g class="overplot"/><path class="xlines-above crisp" d="M79,520.5H681" style="fill: none; stroke-width: 1px; stroke: rgb(36, 36, 36); stroke-opacity: 1;"/><path class="ylines-above crisp" d="M79.5,100V520" style="fill: none; stroke-width: 1px; stroke: rgb(36, 36, 36); stroke-opacity: 1;"/><g class="overlines-above"/><g class="xaxislayer-above"><path class="xtick ticks crisp" d="M0,521v5" transform="translate(176.16,0)" style="stroke: rgb(68, 68, 68); stroke-opacity: 1; stroke-width: 1px;"/><path class="xtick ticks crisp" d="M0,521v5" transform="translate(200.2,0)" style="stroke: rgb(68, 68, 68); stroke-opacity: 1; stroke-width: 1px;"/><path class="xtick ticks crisp" d="M0,521v5" transform="translate(272.32,0)" style="stroke: rgb(68, 68, 68); stroke-opacity: 1; stroke-width: 1px;"/><path class="xtick ticks crisp" d="M0,521v5" transform="translate(320.4,0)" style="stroke: rgb(68, 68, 68); stroke-opacity: 1; stroke-width: 1px;"/><path class="xtick ticks crisp" d="M0,521v5" transform="translate(422.57,0)" style="stroke: rgb(68, 68, 68); stroke-opacity: 1; stroke-width: 1px;"/><path class="xtick ticks crisp" d="M0,521v5" transform="translate(590.85,0)" style="stroke: rgb(68, 68, 68); stroke-opacity: 1; stroke-width: 1px;"/><g class="xtick"><text text-anchor="middle" x="0" y="540.4" transform="translate(176.16,0)" style="font-family: 'Open Sans', verdana, arial, sans-serif; font-size: 12px; fill: rgb(36, 36, 36); fill-opacity: 1; white-space: pre; opacity: 1;">16</text></g><g class="xtick"><text text-anchor="middle" x="0" y="540.4" style="font-family: 'Open Sans', verdana, arial, sans-serif; font-size: 12px; fill: rgb(36, 36, 36); fill-opacity: 1; white-space: pre; opacity: 1;" transform="translate(200.2,0)">20</text></g><g class="xtick"><text text-anchor="middle" x="0" y="540.4" style="font-family: 'Open Sans', verdana, arial, sans-serif; font-size: 12px; fill: rgb(36, 36, 36); fill-opacity: 1; white-space: pre; opacity: 1;" transform="translate(272.32,0)">32</text></g><g class="xtick"><text text-anchor="middle" x="0" y="540.4" style="font-family: 'Open Sans', verdana, arial, sans-serif; font-size: 12px; fill: rgb(36, 36, 36); fill-opacity: 1; white-space: pre; opacity: 1;" transform="translate(320.4,0)">40</text></g><g class="xtick"><text text-anchor="middle" x="0" y="540.4" style="font-family: 'Open Sans', verdana, arial, sans-serif; font-size: 12px; fill: rgb(36, 36, 36); fill-opacity: 1; white-space: pre; opacity: 1;" transform="translate(422.57,0)">57</text></g><g class="xtick"><text text-anchor="middle" x="0" y="540.4" style="font-family: 'Open Sans', verdana, arial, sans-serif; font-size: 12px; fill: rgb(36, 36, 36); fill-opacity: 1; white-space: pre; opacity: 1;" transform="translate(590.85,0)">85</text></g></g><g class="yaxislayer-above"><path class="ytick ticks crisp" d="M79,0h-5" transform="translate(0,519.0899999999999)" style="stroke: rgb(68, 68, 68); stroke-opacity: 1; stroke-width: 1px;"/><path class="ytick ticks crisp" d="M79,0h-5" transform="translate(0,465.39)" style="stroke: rgb(68, 68, 68); stroke-opacity: 1; stroke-width: 1px;"/><path class="ytick ticks crisp" d="M79,0h-5" transform="translate(0,411.69)" style="stroke: rgb(68, 68, 68); stroke-opacity: 1; stroke-width: 1px;"/><path class="ytick ticks crisp" d="M79,0h-5" transform="translate(0,357.98)" style="stroke: rgb(68, 68, 68); stroke-opacity: 1; stroke-width: 1px;"/><path class="ytick ticks crisp" d="M79,0h-5" transform="translate(0,304.28)" style="stroke: rgb(68, 68, 68); stroke-opacity: 1; stroke-width: 1px;"/><path class="ytick ticks crisp" d="M79,0h-5" transform="translate(0,250.58)" style="stroke: rgb(68, 68, 68); stroke-opacity: 1; stroke-width: 1px;"/><path class="ytick ticks crisp" d="M79,0h-5" transform="translate(0,196.87)" style="stroke: rgb(68, 68, 68); stroke-opacity: 1; stroke-width: 1px;"/><path class="ytick ticks crisp" d="M79,0h-5" transform="translate(0,143.17000000000002)" style="stroke: rgb(68, 68, 68); stroke-opacity: 1; stroke-width: 1px;"/><g class="ytick"><text text-anchor="end" x="71.6" y="4.199999999999999" transform="translate(0,519.0899999999999)" style="font-family: 'Open Sans', verdana, arial, sans-serif; font-size: 12px; fill: rgb(36, 36, 36); fill-opacity: 1; white-space: pre; opacity: 1;">0</text></g><g class="ytick"><text text-anchor="end" x="71.6" y="4.199999999999999" style="font-family: 'Open Sans', verdana, arial, sans-serif; font-size: 12px; fill: rgb(36, 36, 36); fill-opacity: 1; white-space: pre; opacity: 1;" transform="translate(0,465.39)">1000</text></g><g class="ytick"><text text-anchor="end" x="71.6" y="4.199999999999999" style="font-family: 'Open Sans', verdana, arial, sans-serif; font-size: 12px; fill: rgb(36, 36, 36); fill-opacity: 1; white-space: pre; opacity: 1;" transform="translate(0,411.69)">2000</text></g><g class="ytick"><text text-anchor="end" x="71.6" y="4.199999999999999" style="font-family: 'Open Sans', verdana, arial, sans-serif; font-size: 12px; fill: rgb(36, 36, 36); fill-opacity: 1; white-space: pre; opacity: 1;" transform="translate(0,357.98)">3000</text></g><g class="ytick"><text text-anchor="end" x="71.6" y="4.199999999999999" style="font-family: 'Open Sans', verdana, arial, sans-serif; font-size: 12px; fill: rgb(36, 36, 36); fill-opacity: 1; white-space: pre; opacity: 1;" transform="translate(0,304.28)">4000</text></g><g class="ytick"><text text-anchor="end" x="71.6" y="4.199999999999999" style="font-family: 'Open Sans', verdana, arial, sans-serif; font-size: 12px; fill: rgb(36, 36, 36); fill-opacity: 1; white-space: pre; opacity: 1;" transform="translate(0,250.58)">5000</text></g><g class="ytick"><text text-anchor="end" x="71.6" y="4.199999999999999" style="font-family: 'Open Sans', verdana, arial, sans-serif; font-size: 12px; fill: rgb(36, 36, 36); fill-opacity: 1; white-space: pre; opacity: 1;" transform="translate(0,196.87)">6000</text></g><g class="ytick"><text text-anchor="end" x="71.6" y="4.199999999999999" style="font-family: 'Open Sans', verdana, arial, sans-serif; font-size: 12px; fill: rgb(36, 36, 36); fill-opacity: 1; white-space: pre; opacity: 1;" transform="translate(0,143.17000000000002)">7000</text></g></g><g class="overaxes-above"/></g></g><g class="polarlayer"/><g class="smithlayer"/><g class="ternarylayer"/><g class="geolayer"/><g class="funnelarealayer"/><g class="pielayer"/><g class="iciclelayer"/><g class="treemaplayer"/><g class="sunburstlayer"/><g class="glimages"/><defs id="topdefs-4cd1e0"><g class="clips"/><clipPath id="legend4cd1e0"><rect width="95" height="105" x="0" y="0"/></clipPath></defs><g class="layer-above"><g class="imagelayer"/><g class="shapelayer"/></g><g class="infolayer"><g class="legend" pointer-events="all" transform="translate(693.02,100)"><rect class="bg" shape-rendering="crispEdges" width="95" height="105" x="0" y="0" style="stroke: rgb(68, 68, 68); stroke-opacity: 1; fill: rgb(255, 255, 255); fill-opacity: 1; stroke-width: 0px;"/><g class="scrollbox" transform="" clip-path="url(#legend4cd1e0)"><g class="groups"><g class="traces" transform="translate(0,14.5)" style="opacity: 1;"><text class="legendtext" text-anchor="start" x="40" y="4.680000000000001" style="font-family: 'Open Sans', verdana, arial, sans-serif; font-size: 12px; fill: rgb(36, 36, 36); fill-opacity: 1; white-space: pre;">IVT</text><g class="layers" style="opacity: 1;"><g class="legendfill"/><g class="legendlines"/><g class="legendsymbols"><g class="legendpoints"><path class="scatterpts" transform="translate(20,0)" d="M-3.46,1.5H3.46L0,-3Z" style="opacity: 1; stroke-width: 1.5px; fill: rgb(0, 128, 0); fill-opacity: 1; stroke: rgb(0, 128, 0); stroke-opacity: 1;"/></g></g></g><rect class="legendtoggle" x="0" y="-9.5" width="89.03125" height="19" style="fill: rgb(0, 0, 0); fill-opacity: 0;"/></g><g class="traces" transform="translate(0,33.5)" style="opacity: 1;"><text class="legendtext" text-anchor="start" x="40" y="4.680000000000001" style="font-family: 'Open Sans', verdana, arial, sans-serif; font-size: 12px; fill: rgb(36, 36, 36); fill-opacity: 1; white-space: pre;">HIV</text><g class="layers" style="opacity: 1;"><g class="legendfill"/><g class="legendlines"/><g class="legendsymbols"><g class="legendpoints"><path class="scatterpts" transform="translate(20,0)" d="M3.9,0L0,3.9L-3.9,0L0,-3.9Z" style="opacity: 1; stroke-width: 1.5px; fill: rgb(0, 128, 0); fill-opacity: 1; stroke: rgb(0, 128, 0); stroke-opacity: 1;"/></g></g></g><rect class="legendtoggle" x="0" y="-9.5" width="89.03125" height="19" style="fill: rgb(0, 0, 0); fill-opacity: 0;"/></g><g class="traces" transform="translate(0,52.5)" style="opacity: 1;"><text class="legendtext" text-anchor="start" x="40" y="4.680000000000001" style="font-family: 'Open Sans', verdana, arial, sans-serif; font-size: 12px; fill: rgb(36, 36, 36); fill-opacity: 1; white-space: pre;">rRNA</text><g class="layers" style="opacity: 1;"><g class="legendfill"/><g class="legendlines"/><g class="legendsymbols"><g class="legendpoints"><path class="scatterpts" transform="translate(20,0)" d="M0.94,-1.3H3.99L1.52,0.5L2.47,3.4L0,1.6L-2.47,3.4L-1.52,0.5L-3.99,-1.3H-0.94L0,-4.2Z" style="opacity: 1; stroke-width: 1.5px; fill: rgb(0, 128, 0); fill-opacity: 1; stroke: rgb(0, 128, 0); stroke-opacity: 1;"/></g></g></g><rect class="legendtoggle" x="0" y="-9.5" width="89.03125" height="19" style="fill: rgb(0, 0, 0); fill-opacity: 0;"/></g><g class="traces" transform="translate(0,71.5)" style="opacity: 1;"><text class="legendtext" text-anchor="start" x="40" y="4.680000000000001" style="font-family: 'Open Sans', verdana, arial, sans-serif; font-size: 12px; fill: rgb(36, 36, 36); fill-opacity: 1; white-space: pre;">mRNA</text><g class="layers" style="opacity: 1;"><g class="legendfill"/><g class="legendlines"/><g class="legendsymbols"><g class="legendpoints"><path class="scatterpts" transform="translate(20,0)" d="M3,0A3,3 0 1,1 0,-3A3,3 0 0,1 3,0Z" style="opacity: 1; stroke-width: 1.5px; fill: rgb(0, 128, 0); fill-opacity: 1; stroke: rgb(0, 128, 0); stroke-opacity: 1;"/></g></g></g><rect class="legendtoggle" x="0" y="-9.5" width="89.03125" height="19" style="fill: rgb(0, 0, 0); fill-opacity: 0;"/></g><g class="traces" transform="translate(0,90.5)" style="opacity: 1;"><text class="legendtext" text-anchor="start" x="40" y="4.680000000000001" style="font-family: 'Open Sans', verdana, arial, sans-serif; font-size: 12px; fill: rgb(36, 36, 36); fill-opacity: 1; white-space: pre;">Influenza</text><g class="layers" style="opacity: 1;"><g class="legendfill"/><g class="legendlines"/><g class="legendsymbols"><g class="legendpoints"><path class="scatterpts" transform="translate(20,0)" d="M0,3.6V-3.6M3.6,0H-3.6M2.55,2.55L-2.55,-2.55M2.55,-2.55L-2.55,2.55" style="opacity: 1; stroke-width: 1.5px; fill: rgb(0, 128, 0); fill-opacity: 1; stroke: rgb(0, 128, 0); stroke-opacity: 1;"/></g></g></g><rect class="legendtoggle" x="0" y="-9.5" width="89.03125" height="19" style="fill: rgb(0, 0, 0); fill-opacity: 0;"/></g></g></g><rect class="scrollbar" rx="20" ry="3" width="0" height="0" x="0" y="0" style="fill: rgb(128, 139, 164); fill-opacity: 1;"/></g><g class="g-gtitle"/><g class="g-xtitle"><text class="xtitle" x="380.5" y="568.20625" text-anchor="middle" style="font-family: 'Open Sans', verdana, arial, sans-serif; font-size: 14px; fill: rgb(36, 36, 36); opacity: 1; font-weight: normal; white-space: pre;">DMS concentration (mM)</text></g><g class="g-ytitle"><text class="ytitle" transform="rotate(-90,20.090625000000003,310)" x="20.090625000000003" y="310" text-anchor="middle" style="font-family: 'Open Sans', verdana, arial, sans-serif; font-size: 14px; fill: rgb(36, 36, 36); opacity: 1; font-weight: normal; white-space: pre;">amplicon length (bp)</text></g></g></svg>