<svg class="main-svg" xmlns="http://www.w3.org/2000/svg" xmlns:xlink="http://www.w3.org/1999/xlink" width="500" height="300" style="" viewBox="0 0 500 300"><rect x="0" y="0" width="500" height="300" style="fill: rgb(255, 255, 255); fill-opacity: 1;"/><defs id="defs-b42b5c"><g class="clips"><clipPath id="clipb42b5cxyplot" class="plotclip"><rect width="158.27" height="160"/></clipPath><clipPath id="clipb42b5cx2y2plot" class="plotclip"><rect width="158.27" height="160"/></clipPath><clipPath class="axesclip" id="clipb42b5cx"><rect x="80" y="0" width="158.27" height="300"/></clipPath><clipPath class="axesclip" id="clipb42b5cy"><rect x="0" y="60" width="500" height="160"/></clipPath><clipPath class="axesclip" id="clipb42b5cxy"><rect x="80" y="60" width="158.27" height="160"/></clipPath><clipPath class="axesclip" id="clipb42b5cy2"><rect x="0" y="60" width="500" height="160"/></clipPath><clipPath class="axesclip" id="clipb42b5cxy2"><rect x="80" y="60" width="158.27" height="160"/></clipPath><clipPath class="axesclip" id="clipb42b5cx2"><rect x="244.73" y="0" width="158.27" height="300"/></clipPath><clipPath class="axesclip" id="clipb42b5cx2y"><rect x="244.73" y="60" width="158.27" height="160"/></clipPath><clipPath class="axesclip" id="clipb42b5cx2y2"><rect x="244.73" y="60" width="158.27" height="160"/></clipPath></g><g class="gradients"/><g class="patterns"/></defs><g class="bglayer"/><g class="layer-below"><g class="imagelayer"/><g class="shapelayer"/></g><g class="cartesianlayer"><g class="subplot xy"><g class="layer-subplot"><g class="shapelayer"/><g class="imagelayer"/></g><g class="minor-gridlayer"><g class="x"/><g class="y"/></g><g class="gridlayer"><g class="x"/><g class="y"><path class="ygrid crisp" transform="translate(0,193.84)" d="M80,0h158.27" style="stroke: rgb(232, 232, 232); stroke-opacity: 1; stroke-width: 1px;"/><path class="ygrid crisp" transform="translate(0,156.91)" d="M80,0h158.27" style="stroke: rgb(232, 232, 232); stroke-opacity: 1; stroke-width: 1px;"/><path class="ygrid crisp" transform="translate(0,123.87)" d="M80,0h158.27" style="stroke: rgb(232, 232, 232); stroke-opacity: 1; stroke-width: 1px;"/><path class="ygrid crisp" transform="translate(0,93.97999999999999)" d="M80,0h158.27" style="stroke: rgb(232, 232, 232); stroke-opacity: 1; stroke-width: 1px;"/><path class="ygrid crisp" transform="translate(0,66.69)" d="M80,0h158.27" style="stroke: rgb(232, 232, 232); stroke-opacity: 1; stroke-width: 1px;"/></g></g><g class="zerolinelayer"/><path class="xlines-below"/><path class="ylines-below"/><g class="overlines-below"/><g class="xaxislayer-below"/><g class="yaxislayer-below"/><g class="overaxes-below"/><g class="plot" transform="translate(80,60)" clip-path="url(#clipb42b5cxyplot)"><g class="scatterlayer mlayer"><g class="trace scatter trace3b4172" style="stroke-miterlimit: 2; opacity: 1;"><g class="fills"/><g class="errorbars"/><g class="lines"><path class="js-line" d="M0,152L0.39,152L0.79,147.87L1.18,145.83L1.58,105.74L4.34,73.42L4.74,70.2L5.13,75.04L5.53,67.02L6.71,51.57L7.1,51.57L7.5,51.57L7.89,54.6L8.29,54.6L8.68,56.12L9.08,56.12L9.47,51.57L9.87,51.57L10.26,54.6L11.45,48.57L11.84,50.06L12.24,50.06L12.63,67.02L13.81,50.06L14.21,50.06L15.39,54.6L15.79,53.08L17.76,38.28L18.16,39.73L18.95,38.28L19.34,42.65L20.13,38.28L20.52,41.19L20.92,36.84L21.31,38.28L21.71,36.84L23.29,32.56L23.68,33.98L24.47,33.98L24.87,36.84L25.26,42.65L25.65,32.56L26.05,36.84L26.44,35.41L26.84,35.41L27.63,31.14L28.02,33.98L28.81,31.14L29.21,36.84L30,33.98L30.39,33.98L31.58,29.73L31.97,32.56L33.15,32.56L33.55,31.14L34.34,31.14L34.73,29.73L35.92,36.84L36.31,31.14L36.71,29.73L37.1,32.56L37.5,32.56L37.89,31.14L38.28,38.28L38.68,33.98L39.07,38.28L40.65,31.14L41.05,33.98L41.84,36.84L42.23,42.65L43.81,31.14L44.21,31.14L44.6,33.98L44.99,32.56L45.39,31.14L45.78,31.14L46.18,35.41L46.57,35.41L46.97,29.73L47.36,31.14L47.76,36.84L48.15,35.41L48.55,25.54L48.94,26.93L49.34,25.54L50.13,33.98L50.52,32.56L50.91,29.73L51.31,31.14L51.7,31.14L52.1,33.98L52.49,32.56L52.89,32.56L53.28,38.28L53.68,29.73L54.07,26.93L54.47,32.56L56.05,24.15L56.44,28.33L56.84,25.54L57.23,29.73L58.81,21.4L59.2,21.4L59.99,28.33L60.39,25.54L60.78,22.78L61.18,28.33L61.57,28.33L61.97,24.15L62.36,25.54L62.76,32.56L63.54,22.78L63.94,22.78L64.33,22.78L64.73,25.54L65.12,28.33L65.52,26.93L65.91,25.54L66.7,20.04L67.1,24.15L67.89,21.4L68.28,24.15L68.68,25.54L69.07,31.14L69.47,20.04L69.86,22.78L70.25,21.4L70.65,21.4L71.04,18.68L71.44,18.68L71.83,21.4L73.02,26.93L73.41,35.41L73.81,22.78L74.2,26.93L74.6,22.78L75.78,18.68L76.17,22.78L76.96,18.68L77.36,22.78L78.54,18.68L78.94,20.04L79.33,20.04L79.73,21.4L80.12,17.32L80.52,22.78L81.31,18.68L81.7,18.68L82.1,20.04L82.49,17.32L83.67,31.14L84.07,25.54L85.25,20.04L85.65,21.4L86.04,21.4L86.44,24.15L86.83,33.98L87.23,20.04L87.62,21.4L88.02,20.04L88.8,22.78L89.2,22.78L89.99,26.93L90.38,22.78L90.78,21.4L91.17,26.93L91.57,36.84L91.96,33.98L92.36,21.4L92.75,21.4L93.15,22.78L93.94,20.04L94.33,21.4L94.73,21.4L95.12,22.78L95.91,28.33L96.3,26.93L97.49,15.97L97.88,17.32L98.28,14.63L98.67,15.97L99.07,15.97L99.86,13.29L100.25,15.97L101.04,13.29L101.43,14.63L102.22,10.64L102.62,10.64L103.01,10.64L103.41,15.97L104.59,9.31L104.99,14.63L105.38,10.64L105.78,14.63L106.57,18.68L106.96,14.63L107.75,14.63L108.14,20.04L108.54,14.63L108.93,20.04L109.33,13.29L109.72,14.63L110.12,15.97L111.3,11.96L111.7,14.63L112.09,8L112.49,10.64L112.88,13.29L113.28,14.63L113.67,22.78L114.06,17.32L114.46,21.4L114.85,22.78L115.25,24.15L115.64,18.68L116.83,25.54L117.22,21.4L118.41,15.97L118.8,15.97L119.2,18.68L119.59,14.63L119.99,18.68L120.38,15.97L120.77,17.32L121.56,14.63L121.96,14.63L122.35,15.97L122.75,25.54L123.54,14.63L123.93,15.97L124.33,15.97L124.72,14.63L125.12,17.32L125.51,17.32L125.91,20.04L126.3,17.32L126.69,20.04L127.09,22.78L127.48,18.68L128.27,15.97L128.67,21.4L129.46,17.32L129.85,18.68L130.25,22.78L131.04,18.68L131.43,21.4L131.83,14.63L132.22,17.32L132.62,17.32L134.59,29.73L134.98,26.93L136.17,21.4L136.56,24.15L136.96,26.93L137.35,24.15L137.75,24.15L138.14,22.78L138.54,25.54L138.93,24.15L139.32,22.78L140.11,20.04L140.51,25.54L141.3,25.54L141.69,29.73L142.09,28.33L142.48,24.15L144.06,24.15L144.46,26.93L145.64,29.73L146.03,28.33L146.43,29.73L146.82,28.33L148.01,28.33L148.4,31.14L148.8,32.56L149.19,29.73L149.98,39.73L150.38,35.41L150.77,32.56L151.17,33.98L151.56,38.28L151.95,41.19L152.35,33.98L153.53,54.6L153.93,56.12L155.11,78.31L155.51,75.04L155.9,76.67L156.3,88.32L156.69,90.02L157.09,95.17L158.27,147.87" style="vector-effect: non-scaling-stroke; fill: none; stroke: rgb(13, 8, 135); stroke-opacity: 1; stroke-width: 2px; opacity: 1;"/></g><g class="points"/><g class="text"/></g></g></g><g class="overplot"/><path class="xlines-above crisp" d="M79,220.5H238.27" style="fill: none; stroke-width: 1px; stroke: rgb(36, 36, 36); stroke-opacity: 1;"/><path class="ylines-above crisp" d="M79.5,60V220" style="fill: none; stroke-width: 1px; stroke: rgb(36, 36, 36); stroke-opacity: 1;"/><g class="overlines-above"/><g class="xaxislayer-above"><path class="xtick ticks crisp" d="M0,221v5" transform="translate(119.07,0)" style="stroke: rgb(68, 68, 68); stroke-opacity: 1; stroke-width: 1px;"/><path class="xtick ticks crisp" d="M0,221v5" transform="translate(158.54000000000002,0)" style="stroke: rgb(68, 68, 68); stroke-opacity: 1; stroke-width: 1px;"/><path class="xtick ticks crisp" d="M0,221v5" transform="translate(198.01,0)" style="stroke: rgb(68, 68, 68); stroke-opacity: 1; stroke-width: 1px;"/><path class="xtick ticks crisp" d="M0,221v5" transform="translate(237.48,0)" style="stroke: rgb(68, 68, 68); stroke-opacity: 1; stroke-width: 1px;"/><g class="xtick"><text text-anchor="middle" x="0" y="240.4" transform="translate(119.07,0)" style="font-family: 'Open Sans', verdana, arial, sans-serif; font-size: 12px; fill: rgb(36, 36, 36); fill-opacity: 1; white-space: pre; opacity: 1;">100</text></g><g class="xtick"><text text-anchor="middle" x="0" y="240.4" style="font-family: 'Open Sans', verdana, arial, sans-serif; font-size: 12px; fill: rgb(36, 36, 36); fill-opacity: 1; white-space: pre; opacity: 1;" transform="translate(158.54000000000002,0)">200</text></g><g class="xtick"><text text-anchor="middle" x="0" y="240.4" style="font-family: 'Open Sans', verdana, arial, sans-serif; font-size: 12px; fill: rgb(36, 36, 36); fill-opacity: 1; white-space: pre; opacity: 1;" transform="translate(198.01,0)">300</text></g><g class="xtick"><text text-anchor="middle" x="0" y="240.4" style="font-family: 'Open Sans', verdana, arial, sans-serif; font-size: 12px; fill: rgb(36, 36, 36); fill-opacity: 1; white-space: pre; opacity: 1;" transform="translate(237.48,0)">400</text></g></g><g class="yaxislayer-above"><path class="ytick ticks crisp" d="M79,0h-5" transform="translate(0,193.84)" style="stroke: rgb(68, 68, 68); stroke-opacity: 1; stroke-width: 1px;"/><path class="ytick ticks crisp" d="M79,0h-5" transform="translate(0,156.91)" style="stroke: rgb(68, 68, 68); stroke-opacity: 1; stroke-width: 1px;"/><path class="ytick ticks crisp" d="M79,0h-5" transform="translate(0,123.87)" style="stroke: rgb(68, 68, 68); stroke-opacity: 1; stroke-width: 1px;"/><path class="ytick ticks crisp" d="M79,0h-5" transform="translate(0,93.97999999999999)" style="stroke: rgb(68, 68, 68); stroke-opacity: 1; stroke-width: 1px;"/><path class="ytick ticks crisp" d="M79,0h-5" transform="translate(0,66.69)" style="stroke: rgb(68, 68, 68); stroke-opacity: 1; stroke-width: 1px;"/><g class="ytick"><text text-anchor="end" x="71.6" y="4.199999999999999" transform="translate(0,193.84)" style="font-family: 'Open Sans', verdana, arial, sans-serif; font-size: 12px; fill: rgb(36, 36, 36); fill-opacity: 1; white-space: pre; opacity: 1;">160</text></g><g class="ytick"><text text-anchor="end" x="71.6" y="4.199999999999999" style="font-family: 'Open Sans', verdana, arial, sans-serif; font-size: 12px; fill: rgb(36, 36, 36); fill-opacity: 1; white-space: pre; opacity: 1;" transform="translate(0,156.91)">180</text></g><g class="ytick"><text text-anchor="end" x="71.6" y="4.199999999999999" style="font-family: 'Open Sans', verdana, arial, sans-serif; font-size: 12px; fill: rgb(36, 36, 36); fill-opacity: 1; white-space: pre; opacity: 1;" transform="translate(0,123.87)">200</text></g><g class="ytick"><text text-anchor="end" x="71.6" y="4.199999999999999" style="font-family: 'Open Sans', verdana, arial, sans-serif; font-size: 12px; fill: rgb(36, 36, 36); fill-opacity: 1; white-space: pre; opacity: 1;" transform="translate(0,93.97999999999999)">220</text></g><g class="ytick"><text text-anchor="end" x="71.6" y="4.199999999999999" style="font-family: 'Open Sans', verdana, arial, sans-serif; font-size: 12px; fill: rgb(36, 36, 36); fill-opacity: 1; white-space: pre; opacity: 1;" transform="translate(0,66.69)">240</text></g></g><g class="overaxes-above"/></g><g class="subplot x2y2"><g class="layer-subplot"><g class="shapelayer"/><g class="imagelayer"/></g><g class="minor-gridlayer"><g class="x2"/><g class="y2"/></g><g class="gridlayer"><g class="x2"/><g class="y2"><path class="y2grid crisp" transform="translate(0,193.84)" d="M244.73,0h158.27" style="stroke: rgb(232, 232, 232); stroke-opacity: 1; stroke-width: 1px;"/><path class="y2grid crisp" transform="translate(0,156.91)" d="M244.73,0h158.27" style="stroke: rgb(232, 232, 232); stroke-opacity: 1; stroke-width: 1px;"/><path class="y2grid crisp" transform="translate(0,123.87)" d="M244.73,0h158.27" style="stroke: rgb(232, 232, 232); stroke-opacity: 1; stroke-width: 1px;"/><path class="y2grid crisp" transform="translate(0,93.97999999999999)" d="M244.73,0h158.27" style="stroke: rgb(232, 232, 232); stroke-opacity: 1; stroke-width: 1px;"/><path class="y2grid crisp" transform="translate(0,66.69)" d="M244.73,0h158.27" style="stroke: rgb(232, 232, 232); stroke-opacity: 1; stroke-width: 1px;"/></g></g><g class="zerolinelayer"/><path class="xlines-below"/><path class="ylines-below"/><g class="overlines-below"/><g class="xaxislayer-below"/><g class="yaxislayer-below"/><g class="overaxes-below"/><g class="plot" transform="translate(244.73,60)" clip-path="url(#clipb42b5cx2y2plot)"><g class="scatterlayer mlayer"><g class="trace scatter trace92a2f4" style="stroke-miterlimit: 2; opacity: 1;"><g class="fills"/><g class="errorbars"/><g class="lines"><path class="js-line" d="M0,116.68L1.18,105.74L1.58,75.04L1.97,75.04L2.37,73.42L3.55,65.44L3.95,65.44L4.34,62.3L4.74,63.87L5.13,65.44L7.5,51.57L7.89,51.57L8.68,51.57L9.08,48.57L9.47,56.12L9.87,48.57L10.26,54.6L10.66,48.57L11.05,47.08L11.45,48.57L12.24,53.08L12.63,62.3L13.02,48.57L13.42,50.06L13.81,48.57L15,48.57L15.39,60.75L16.18,48.57L16.58,50.06L16.97,50.06L17.37,51.57L17.76,47.08L18.16,51.57L18.55,48.57L18.95,47.08L19.34,56.12L19.73,50.06L20.13,47.08L20.52,51.57L20.92,47.08L21.31,48.57L21.71,47.08L22.1,47.08L22.5,45.59L24.08,45.59L24.47,48.57L24.87,48.57L25.26,51.57L26.05,47.08L26.44,47.08L26.84,45.59L27.23,50.06L27.63,45.59L28.02,48.57L28.42,47.08L28.81,53.08L29.21,48.57L29.6,48.57L30.39,50.06L30.79,50.06L31.18,47.08L31.58,48.57L31.97,50.06L32.36,51.57L32.76,48.57L33.15,47.08L33.55,48.57L34.34,51.57L34.73,47.08L35.13,50.06L35.52,48.57L35.92,48.57L36.31,50.06L36.71,48.57L37.1,48.57L37.5,50.06L37.89,50.06L38.28,51.57L38.68,50.06L39.07,53.08L39.86,48.57L40.26,50.06L40.65,47.08L41.05,50.06L42.23,68.61L42.63,57.66L43.81,48.57L44.21,48.57L44.6,48.57L44.99,50.06L45.78,51.57L46.18,59.2L47.36,45.59L47.76,47.08L48.15,47.08L48.55,48.57L48.94,47.08L49.34,47.08L49.73,51.57L50.13,51.57L50.52,53.08L50.91,53.08L51.31,59.2L52.49,50.06L52.89,51.57L53.28,54.6L53.68,51.57L54.07,50.06L54.47,53.08L55.65,48.57L56.05,50.06L56.44,50.06L56.84,45.59L57.23,48.57L57.62,45.59L58.41,42.65L58.81,44.12L59.6,42.65L59.99,44.12L60.39,42.65L60.78,44.12L61.18,50.06L61.57,45.59L61.97,44.12L62.76,42.65L63.15,42.65L63.54,44.12L63.94,42.65L65.52,48.57L65.91,44.12L66.7,42.65L67.1,45.59L68.28,39.73L68.68,48.57L69.07,51.57L69.47,48.57L69.86,44.12L70.25,47.08L70.65,44.12L71.04,47.08L71.44,44.12L71.83,44.12L72.23,45.59L72.62,44.12L73.02,45.59L73.41,51.57L73.81,44.12L74.2,53.08L74.6,47.08L74.99,42.65L75.39,42.65L75.78,44.12L76.17,47.08L76.57,41.19L76.96,41.19L77.36,42.65L78.54,42.65L78.94,41.19L79.33,39.73L79.73,41.19L80.12,39.73L80.52,44.12L81.31,42.65L81.7,44.12L82.1,44.12L82.49,39.73L82.88,44.12L83.28,39.73L83.67,44.12L84.07,41.19L84.46,41.19L84.86,41.19L85.25,44.12L85.65,45.59L86.04,42.65L86.83,51.57L87.23,44.12L87.62,42.65L88.02,44.12L89.2,47.08L89.59,51.57L89.99,53.08L90.38,44.12L90.78,47.08L91.17,57.66L91.57,70.2L91.96,51.57L92.75,47.08L93.15,51.57L93.54,45.59L93.94,50.06L94.33,53.08L94.73,48.57L95.12,50.06L95.51,48.57L96.3,48.57L96.7,45.59L97.49,45.59L97.88,47.08L99.46,42.65L99.86,45.59L100.25,45.59L100.65,42.65L101.43,42.65L101.83,44.12L102.22,44.12L102.62,41.19L104.2,41.19L104.59,42.65L104.99,41.19L105.38,44.12L106.17,44.12L106.57,42.65L106.96,42.65L107.36,39.73L107.75,47.08L108.14,42.65L108.54,39.73L108.93,39.73L109.33,41.19L109.72,38.28L110.12,42.65L110.91,42.65L111.3,44.12L112.09,45.59L112.49,45.59L113.28,42.65L113.67,50.06L114.85,44.12L115.25,47.08L116.04,45.59L116.43,45.59L116.83,45.59L117.22,41.19L117.62,41.19L118.01,44.12L118.8,39.73L119.2,41.19L119.99,44.12L120.38,41.19L120.77,53.08L121.17,41.19L121.56,41.19L121.96,42.65L122.35,39.73L122.75,42.65L123.14,42.65L123.54,45.59L124.72,41.19L125.12,42.65L125.51,41.19L125.91,47.08L126.69,42.65L127.09,45.59L127.88,42.65L128.27,42.65L128.67,47.08L129.06,45.59L129.46,44.12L130.25,45.59L130.64,44.12L131.04,44.12L131.43,42.65L131.83,48.57L132.22,45.59L132.62,42.65L133.8,45.59L134.19,44.12L134.98,47.08L135.38,53.08L135.77,42.65L136.17,45.59L136.56,45.59L137.35,47.08L137.75,47.08L138.14,44.12L138.54,45.59L138.93,54.6L139.32,54.6L139.72,51.57L140.51,45.59L140.9,45.59L141.3,45.59L141.69,48.57L143.27,42.65L143.67,44.12L144.06,44.12L144.46,42.65L144.85,44.12L145.25,42.65L145.64,44.12L146.03,42.65L146.43,47.08L146.82,42.65L147.22,42.65L147.61,44.12L148.4,42.65L148.8,42.65L149.19,42.65L149.59,53.08L149.98,59.2L150.38,51.57L150.77,50.06L151.17,54.6L152.35,45.59L152.74,53.08L153.93,62.3L154.32,59.2L155.9,63.87L156.3,68.61L156.69,68.61L157.09,75.04L158.27,102.18" style="vector-effect: non-scaling-stroke; fill: none; stroke: rgb(13, 8, 135); stroke-opacity: 1; stroke-width: 2px; opacity: 1;"/></g><g class="points"/><g class="text"/></g></g></g><g class="overplot"/><path class="xlines-above crisp" d="M243.73,220.5H403" style="fill: none; stroke-width: 1px; stroke: rgb(36, 36, 36); stroke-opacity: 1;"/><path class="ylines-above crisp" d="M244.23,60V220" style="fill: none; stroke-width: 1px; stroke: rgb(36, 36, 36); stroke-opacity: 1;"/><g class="overlines-above"/><g class="xaxislayer-above"><path class="x2tick ticks crisp" d="M0,221v5" transform="translate(283.8,0)" style="stroke: rgb(68, 68, 68); stroke-opacity: 1; stroke-width: 1px;"/><path class="x2tick ticks crisp" d="M0,221v5" transform="translate(323.27,0)" style="stroke: rgb(68, 68, 68); stroke-opacity: 1; stroke-width: 1px;"/><path class="x2tick ticks crisp" d="M0,221v5" transform="translate(362.74,0)" style="stroke: rgb(68, 68, 68); stroke-opacity: 1; stroke-width: 1px;"/><path class="x2tick ticks crisp" d="M0,221v5" transform="translate(402.21,0)" style="stroke: rgb(68, 68, 68); stroke-opacity: 1; stroke-width: 1px;"/><g class="x2tick"><text text-anchor="middle" x="0" y="240.4" transform="translate(283.8,0)" style="font-family: 'Open Sans', verdana, arial, sans-serif; font-size: 12px; fill: rgb(36, 36, 36); fill-opacity: 1; white-space: pre; opacity: 1;">100</text></g><g class="x2tick"><text text-anchor="middle" x="0" y="240.4" style="font-family: 'Open Sans', verdana, arial, sans-serif; font-size: 12px; fill: rgb(36, 36, 36); fill-opacity: 1; white-space: pre; opacity: 1;" transform="translate(323.27,0)">200</text></g><g class="x2tick"><text text-anchor="middle" x="0" y="240.4" style="font-family: 'Open Sans', verdana, arial, sans-serif; font-size: 12px; fill: rgb(36, 36, 36); fill-opacity: 1; white-space: pre; opacity: 1;" transform="translate(362.74,0)">300</text></g><g class="x2tick"><text text-anchor="middle" x="0" y="240.4" style="font-family: 'Open Sans', verdana, arial, sans-serif; font-size: 12px; fill: rgb(36, 36, 36); fill-opacity: 1; white-space: pre; opacity: 1;" transform="translate(402.21,0)">400</text></g></g><g class="yaxislayer-above"><path class="y2tick ticks crisp" d="M243.73,0h-5" transform="translate(0,193.84)" style="stroke: rgb(68, 68, 68); stroke-opacity: 1; stroke-width: 1px;"/><path class="y2tick ticks crisp" d="M243.73,0h-5" transform="translate(0,156.91)" style="stroke: rgb(68, 68, 68); stroke-opacity: 1; stroke-width: 1px;"/><path class="y2tick ticks crisp" d="M243.73,0h-5" transform="translate(0,123.87)" style="stroke: rgb(68, 68, 68); stroke-opacity: 1; stroke-width: 1px;"/><path class="y2tick ticks crisp" d="M243.73,0h-5" transform="translate(0,93.97999999999999)" style="stroke: rgb(68, 68, 68); stroke-opacity: 1; stroke-width: 1px;"/><path class="y2tick ticks crisp" d="M243.73,0h-5" transform="translate(0,66.69)" style="stroke: rgb(68, 68, 68); stroke-opacity: 1; stroke-width: 1px;"/></g><g class="overaxes-above"/></g></g><g class="polarlayer"/><g class="smithlayer"/><g class="ternarylayer"/><g class="geolayer"/><g class="funnelarealayer"/><g class="pielayer"/><g class="iciclelayer"/><g class="treemaplayer"/><g class="sunburstlayer"/><g class="glimages"/><defs id="topdefs-b42b5c"><g class="clips"/><clipPath id="legendb42b5c"><rect width="79" height="48" x="0" y="0"/></clipPath></defs><g class="layer-above"><g class="imagelayer"/><g class="shapelayer"/></g><g class="infolayer"><g class="legend" pointer-events="all" transform="translate(409.46,60)"><rect class="bg" shape-rendering="crispEdges" width="79" height="48" x="0" y="0" style="stroke: rgb(68, 68, 68); stroke-opacity: 1; fill: rgb(255, 255, 255); fill-opacity: 1; stroke-width: 0px;"/><g class="scrollbox" transform="" clip-path="url(#legendb42b5c)"><text class="legendtitletext" text-anchor="start" x="2" y="18.2" style="font-family: 'Open Sans', verdana, arial, sans-serif; font-size: 14px; fill: rgb(36, 36, 36); fill-opacity: 1; white-space: pre;">DMS_conc</text><g class="groups" transform=""><g class="traces" transform="translate(0,32.7)" style="opacity: 1;"><text class="legendtext" text-anchor="start" x="40" y="4.680000000000001" style="font-family: 'Open Sans', verdana, arial, sans-serif; font-size: 12px; fill: rgb(36, 36, 36); fill-opacity: 1; white-space: pre;">85mM</text><g class="layers" style="opacity: 1;"><g class="legendfill"/><g class="legendlines"><path class="js-line" d="M5,0h30" style="fill: none; stroke: rgb(13, 8, 135); stroke-opacity: 1; stroke-width: 2px;"/></g><g class="legendsymbols"><g class="legendpoints"/></g></g><rect class="legendtoggle" x="0" y="-9.5" width="73.34375" height="19" style="fill: rgb(0, 0, 0); fill-opacity: 0;"/></g></g></g><rect class="scrollbar" rx="20" ry="3" width="0" height="0" x="0" y="0" style="fill: rgb(128, 139, 164); fill-opacity: 1;"/></g><g class="g-gtitle"><text class="gtitle" x="25" y="30" text-anchor="start" dy="0em" style="font-family: 'Open Sans', verdana, arial, sans-serif; font-size: 17px; fill: rgb(36, 36, 36); opacity: 1; font-weight: normal; white-space: pre;">RT2_Env8_RT3_Rev6</text></g><g class="g-xtitle"><text class="xtitle" x="159.135" y="268.20625" text-anchor="middle" style="font-family: 'Open Sans', verdana, arial, sans-serif; font-size: 14px; fill: rgb(36, 36, 36); opacity: 1; font-weight: normal; white-space: pre;">position</text></g><g class="g-x2title"><text class="x2title" x="323.865" y="268.20625" text-anchor="middle" style="font-family: 'Open Sans', verdana, arial, sans-serif; font-size: 14px; fill: rgb(36, 36, 36); opacity: 1; font-weight: normal; white-space: pre;">position</text></g><g class="g-ytitle"><text class="ytitle" transform="rotate(-90,26.778125000000003,140)" x="26.778125000000003" y="140" text-anchor="middle" style="font-family: 'Open Sans', verdana, arial, sans-serif; font-size: 14px; fill: rgb(36, 36, 36); opacity: 1; font-weight: normal; white-space: pre;">coverage</text></g><g class="g-y2title"/><g class="annotation" data-index="0" style="opacity: 1;"><g class="annotation-text-g" transform="rotate(0,159.135,51)"><g class="cursor-pointer" transform="translate(143,42)"><rect class="bg" x="0.5" y="0.5" width="32" height="17" style="stroke-width: 1px; stroke: rgb(0, 0, 0); stroke-opacity: 0; fill: rgb(0, 0, 0); fill-opacity: 0;"/><text class="annotation-text" text-anchor="middle" x="16.34375" y="13" style="font-family: 'Open Sans', verdana, arial, sans-serif; font-size: 12px; fill: rgb(36, 36, 36); fill-opacity: 1; white-space: pre;">Rep1</text></g></g></g><g class="annotation" data-index="1" style="opacity: 1;"><g class="annotation-text-g" transform="rotate(0,323.865,51)"><g class="cursor-pointer" transform="translate(307,42)"><rect class="bg" x="0.5" y="0.5" width="32" height="17" style="stroke-width: 1px; stroke: rgb(0, 0, 0); stroke-opacity: 0; fill: rgb(0, 0, 0); fill-opacity: 0;"/><text class="annotation-text" text-anchor="middle" x="16.34375" y="13" style="font-family: 'Open Sans', verdana, arial, sans-serif; font-size: 12px; fill: rgb(36, 36, 36); fill-opacity: 1; white-space: pre;">Rep2</text></g></g></g></g></svg>