<svg class="main-svg" xmlns="http://www.w3.org/2000/svg" xmlns:xlink="http://www.w3.org/1999/xlink" width="500" height="300" style="" viewBox="0 0 500 300"><rect x="0" y="0" width="500" height="300" style="fill: rgb(255, 255, 255); fill-opacity: 1;"/><defs id="defs-7ef03b"><g class="clips"><clipPath id="clip7ef03bxyplot" class="plotclip"><rect width="158.27" height="160"/></clipPath><clipPath id="clip7ef03bx2y2plot" class="plotclip"><rect width="158.27" height="160"/></clipPath><clipPath class="axesclip" id="clip7ef03bx"><rect x="80" y="0" width="158.27" height="300"/></clipPath><clipPath class="axesclip" id="clip7ef03by"><rect x="0" y="60" width="500" height="160"/></clipPath><clipPath class="axesclip" id="clip7ef03bxy"><rect x="80" y="60" width="158.27" height="160"/></clipPath><clipPath class="axesclip" id="clip7ef03by2"><rect x="0" y="60" width="500" height="160"/></clipPath><clipPath class="axesclip" id="clip7ef03bxy2"><rect x="80" y="60" width="158.27" height="160"/></clipPath><clipPath class="axesclip" id="clip7ef03bx2"><rect x="244.73" y="0" width="158.27" height="300"/></clipPath><clipPath class="axesclip" id="clip7ef03bx2y"><rect x="244.73" y="60" width="158.27" height="160"/></clipPath><clipPath class="axesclip" id="clip7ef03bx2y2"><rect x="244.73" y="60" width="158.27" height="160"/></clipPath></g><g class="gradients"/><g class="patterns"/></defs><g class="bglayer"/><g class="layer-below"><g class="imagelayer"/><g class="shapelayer"/></g><g class="cartesianlayer"><g class="subplot xy"><g class="layer-subplot"><g class="shapelayer"/><g class="imagelayer"/></g><g class="minor-gridlayer"><g class="x"/><g class="y"/></g><g class="gridlayer"><g class="x"/><g class="y"><path class="ygrid crisp" transform="translate(0,203.03)" d="M80,0h158.27" style="stroke: rgb(232, 232, 232); stroke-opacity: 1; stroke-width: 1px;"/><path class="ygrid crisp" transform="translate(0,169.09)" d="M80,0h158.27" style="stroke: rgb(232, 232, 232); stroke-opacity: 1; stroke-width: 1px;"/><path class="ygrid crisp" transform="translate(0,137.87)" d="M80,0h158.27" style="stroke: rgb(232, 232, 232); stroke-opacity: 1; stroke-width: 1px;"/><path class="ygrid crisp" transform="translate(0,108.96000000000001)" d="M80,0h158.27" style="stroke: rgb(232, 232, 232); stroke-opacity: 1; stroke-width: 1px;"/><path class="ygrid crisp" transform="translate(0,82.05)" d="M80,0h158.27" style="stroke: rgb(232, 232, 232); stroke-opacity: 1; stroke-width: 1px;"/></g></g><g class="zerolinelayer"/><path class="xlines-below"/><path class="ylines-below"/><g class="overlines-below"/><g class="xaxislayer-below"/><g class="yaxislayer-below"/><g class="overaxes-below"/><g class="plot" transform="translate(80,60)" clip-path="url(#clip7ef03bxyplot)"><g class="scatterlayer mlayer"><g class="trace scatter trace52555e" style="stroke-miterlimit: 2; opacity: 1;"><g class="fills"/><g class="errorbars"/><g class="lines"><path class="js-line" d="M0,104.25L1.33,96.3L1.77,53.16L2.22,54.57L2.66,46.18L3.1,46.18L3.55,43.43L5.32,32.59L5.76,37.97L6.21,35.27L6.65,24.66L7.54,22.05L7.98,15.6L9.31,19.46L9.75,18.17L10.64,19.46L11.08,28.6L11.53,32.59L11.97,25.97L12.41,36.62L12.86,28.6L13.3,32.59L13.74,29.93L14.19,46.18L14.63,28.6L15.07,29.93L15.52,29.93L15.96,28.6L16.4,29.93L16.85,29.93L17.29,35.27L18.18,25.97L18.62,28.6L19.06,27.28L19.51,27.28L19.95,33.93L20.39,37.97L20.84,31.26L21.28,31.26L21.72,39.33L22.61,25.97L23.05,27.28L23.5,27.28L23.94,25.97L24.83,23.35L25.27,25.97L25.71,23.35L26.16,25.97L26.6,23.35L27.04,24.66L27.49,27.28L27.93,29.93L28.37,25.97L28.82,22.05L29.26,28.6L30.15,22.05L30.59,28.6L31.03,23.35L31.48,27.28L32.36,20.75L32.81,22.05L34.14,25.97L34.58,22.05L35.91,29.93L36.35,28.6L36.8,24.66L37.68,24.66L38.13,25.97L39.01,25.97L39.46,23.35L39.9,23.35L40.34,27.28L40.79,28.6L41.23,24.66L41.67,29.93L42.12,25.97L42.56,28.6L43,47.57L43.45,27.28L43.89,37.97L44.33,27.28L44.78,25.97L45.22,27.28L46.11,24.66L46.55,27.28L47.88,29.93L48.32,25.97L48.77,27.28L49.21,25.97L49.65,25.97L50.1,27.28L51.43,20.75L51.87,28.6L53.2,20.75L53.64,23.35L54.53,22.05L54.97,22.05L55.42,24.66L55.86,35.27L56.75,28.6L57.19,28.6L57.63,32.59L58.08,24.66L58.96,32.59L59.41,27.28L59.85,39.33L60.29,28.6L60.74,23.35L61.18,24.66L61.62,27.28L62.07,24.66L62.51,28.6L64.28,18.17L64.73,20.75L66.5,16.88L66.94,16.88L67.39,18.17L67.83,16.88L68.27,16.88L68.72,23.35L70.05,16.88L70.49,18.17L70.93,19.46L71.38,16.88L71.82,19.46L72.26,16.88L73.15,15.6L73.59,18.17L74.04,18.17L74.48,14.32L74.92,15.6L75.37,32.59L76.7,16.88L77.14,25.97L77.58,33.93L78.03,22.05L78.91,15.6L79.36,15.6L79.8,18.17L80.24,15.6L80.69,15.6L81.13,16.88L81.57,16.88L82.02,14.32L82.46,16.88L82.9,14.32L83.79,24.66L84.23,16.88L84.68,16.88L85.12,23.35L85.56,15.6L86.01,16.88L86.45,15.6L86.89,15.6L87.34,14.32L88.22,19.46L88.67,15.6L89.11,16.88L89.55,20.75L90.88,14.32L91.33,15.6L91.77,15.6L92.21,23.35L93.54,14.32L93.99,19.46L95.76,13.05L96.2,19.46L96.65,16.88L97.09,20.75L97.53,18.17L97.98,10.52L98.42,11.78L98.86,10.52L100.19,14.32L100.64,19.46L101.08,19.46L101.52,11.78L102.85,25.97L103.3,20.75L104.18,9.26L104.63,10.52L105.07,20.75L105.51,13.05L105.96,11.78L106.4,14.32L107.29,14.32L107.73,13.05L108.17,19.46L108.62,15.6L109.06,10.52L109.5,11.78L109.95,10.52L110.83,10.52L111.28,9.26L112.16,9.26L112.61,11.78L113.05,10.52L113.49,14.32L113.94,14.32L114.38,11.78L115.71,14.32L116.15,11.78L116.6,10.52L117.04,15.6L117.48,10.52L117.93,11.78L118.37,14.32L119.26,10.52L119.7,10.52L120.14,10.52L120.59,8L121.03,8L121.47,11.78L121.92,11.78L122.36,16.88L123.25,9.26L123.69,10.52L124.58,8L125.02,9.26L125.46,13.05L125.91,9.26L126.35,9.26L126.79,14.32L127.24,11.78L127.68,27.28L128.12,10.52L128.57,11.78L129.01,11.78L129.45,10.52L129.9,11.78L130.34,10.52L130.78,14.32L131.23,15.6L131.67,10.52L132.11,9.26L132.56,10.52L134.33,10.52L134.77,14.32L135.22,13.05L135.66,20.75L136.1,10.52L136.55,13.05L136.99,11.78L137.43,11.78L137.88,16.88L138.76,13.05L139.21,13.05L139.65,13.05L140.09,15.6L140.54,16.88L140.98,14.32L141.87,16.88L142.31,14.32L142.75,22.05L143.2,16.88L143.64,14.32L144.53,16.88L144.97,14.32L146.3,22.05L146.74,16.88L147.19,19.46L147.63,15.6L148.07,16.88L148.52,28.6L148.96,15.6L149.4,16.88L149.85,11.78L151.18,16.88L151.62,13.05L152.51,9.26L152.95,9.26L156.05,9.26L156.5,10.52L156.94,13.05L157.38,28.6L158.27,50.36" style="vector-effect: non-scaling-stroke; fill: none; stroke: rgb(13, 8, 135); stroke-opacity: 1; stroke-width: 2px; opacity: 1;"/></g><g class="points"/><g class="text"/></g></g></g><g class="overplot"/><path class="xlines-above crisp" d="M79,220.5H238.27" style="fill: none; stroke-width: 1px; stroke: rgb(36, 36, 36); stroke-opacity: 1;"/><path class="ylines-above crisp" d="M79.5,60V220" style="fill: none; stroke-width: 1px; stroke: rgb(36, 36, 36); stroke-opacity: 1;"/><g class="overlines-above"/><g class="xaxislayer-above"><path class="xtick ticks crisp" d="M0,221v5" transform="translate(123.89,0)" style="stroke: rgb(68, 68, 68); stroke-opacity: 1; stroke-width: 1px;"/><path class="xtick ticks crisp" d="M0,221v5" transform="translate(168.22,0)" style="stroke: rgb(68, 68, 68); stroke-opacity: 1; stroke-width: 1px;"/><path class="xtick ticks crisp" d="M0,221v5" transform="translate(212.56,0)" style="stroke: rgb(68, 68, 68); stroke-opacity: 1; stroke-width: 1px;"/><g class="xtick"><text text-anchor="middle" x="0" y="240.4" transform="translate(123.89,0)" style="font-family: 'Open Sans', verdana, arial, sans-serif; font-size: 12px; fill: rgb(36, 36, 36); fill-opacity: 1; white-space: pre; opacity: 1;">100</text></g><g class="xtick"><text text-anchor="middle" x="0" y="240.4" style="font-family: 'Open Sans', verdana, arial, sans-serif; font-size: 12px; fill: rgb(36, 36, 36); fill-opacity: 1; white-space: pre; opacity: 1;" transform="translate(168.22,0)">200</text></g><g class="xtick"><text text-anchor="middle" x="0" y="240.4" style="font-family: 'Open Sans', verdana, arial, sans-serif; font-size: 12px; fill: rgb(36, 36, 36); fill-opacity: 1; white-space: pre; opacity: 1;" transform="translate(212.56,0)">300</text></g></g><g class="yaxislayer-above"><path class="ytick ticks crisp" d="M79,0h-5" transform="translate(0,203.03)" style="stroke: rgb(68, 68, 68); stroke-opacity: 1; stroke-width: 1px;"/><path class="ytick ticks crisp" d="M79,0h-5" transform="translate(0,169.09)" style="stroke: rgb(68, 68, 68); stroke-opacity: 1; stroke-width: 1px;"/><path class="ytick ticks crisp" d="M79,0h-5" transform="translate(0,137.87)" style="stroke: rgb(68, 68, 68); stroke-opacity: 1; stroke-width: 1px;"/><path class="ytick ticks crisp" d="M79,0h-5" transform="translate(0,108.96000000000001)" style="stroke: rgb(68, 68, 68); stroke-opacity: 1; stroke-width: 1px;"/><path class="ytick ticks crisp" d="M79,0h-5" transform="translate(0,82.05)" style="stroke: rgb(68, 68, 68); stroke-opacity: 1; stroke-width: 1px;"/><g class="ytick"><text text-anchor="end" x="71.6" y="4.199999999999999" transform="translate(0,203.03)" style="font-family: 'Open Sans', verdana, arial, sans-serif; font-size: 12px; fill: rgb(36, 36, 36); fill-opacity: 1; white-space: pre; opacity: 1;">220</text></g><g class="ytick"><text text-anchor="end" x="71.6" y="4.199999999999999" style="font-family: 'Open Sans', verdana, arial, sans-serif; font-size: 12px; fill: rgb(36, 36, 36); fill-opacity: 1; white-space: pre; opacity: 1;" transform="translate(0,169.09)">240</text></g><g class="ytick"><text text-anchor="end" x="71.6" y="4.199999999999999" style="font-family: 'Open Sans', verdana, arial, sans-serif; font-size: 12px; fill: rgb(36, 36, 36); fill-opacity: 1; white-space: pre; opacity: 1;" transform="translate(0,137.87)">260</text></g><g class="ytick"><text text-anchor="end" x="71.6" y="4.199999999999999" style="font-family: 'Open Sans', verdana, arial, sans-serif; font-size: 12px; fill: rgb(36, 36, 36); fill-opacity: 1; white-space: pre; opacity: 1;" transform="translate(0,108.96000000000001)">280</text></g><g class="ytick"><text text-anchor="end" x="71.6" y="4.199999999999999" style="font-family: 'Open Sans', verdana, arial, sans-serif; font-size: 12px; fill: rgb(36, 36, 36); fill-opacity: 1; white-space: pre; opacity: 1;" transform="translate(0,82.05)">300</text></g></g><g class="overaxes-above"/></g><g class="subplot x2y2"><g class="layer-subplot"><g class="shapelayer"/><g class="imagelayer"/></g><g class="minor-gridlayer"><g class="x2"/><g class="y2"/></g><g class="gridlayer"><g class="x2"/><g class="y2"><path class="y2grid crisp" transform="translate(0,203.03)" d="M244.73,0h158.27" style="stroke: rgb(232, 232, 232); stroke-opacity: 1; stroke-width: 1px;"/><path class="y2grid crisp" transform="translate(0,169.09)" d="M244.73,0h158.27" style="stroke: rgb(232, 232, 232); stroke-opacity: 1; stroke-width: 1px;"/><path class="y2grid crisp" transform="translate(0,137.87)" d="M244.73,0h158.27" style="stroke: rgb(232, 232, 232); stroke-opacity: 1; stroke-width: 1px;"/><path class="y2grid crisp" transform="translate(0,108.96000000000001)" d="M244.73,0h158.27" style="stroke: rgb(232, 232, 232); stroke-opacity: 1; stroke-width: 1px;"/><path class="y2grid crisp" transform="translate(0,82.05)" d="M244.73,0h158.27" style="stroke: rgb(232, 232, 232); stroke-opacity: 1; stroke-width: 1px;"/></g></g><g class="zerolinelayer"/><path class="xlines-below"/><path class="ylines-below"/><g class="overlines-below"/><g class="xaxislayer-below"/><g class="yaxislayer-below"/><g class="overaxes-below"/><g class="plot" transform="translate(244.73,60)" clip-path="url(#clip7ef03bx2y2plot)"><g class="scatterlayer mlayer"><g class="trace scatter trace097187" style="stroke-miterlimit: 2; opacity: 1;"><g class="fills"/><g class="errorbars"/><g class="lines"><path class="js-line" d="M0,152L1.33,136L1.77,101.05L2.66,90.06L3.1,94.73L4.43,82.39L4.88,82.39L5.32,82.39L5.76,85.44L6.21,76.37L6.65,77.87L7.09,74.88L7.54,74.88L7.98,73.39L8.42,73.39L8.87,67.5L9.75,68.97L10.2,68.97L10.64,70.44L11.08,66.05L11.53,70.44L11.97,66.05L12.41,70.44L12.86,68.97L13.3,68.97L13.74,66.05L14.19,74.88L15.07,66.05L15.52,67.5L16.4,66.05L16.85,68.97L17.29,74.88L17.73,66.05L18.18,63.15L18.62,66.05L19.06,68.97L19.51,67.5L19.95,63.15L20.39,68.97L20.84,63.15L21.28,63.15L21.72,71.91L22.61,61.7L23.05,63.15L23.5,61.7L23.94,64.59L24.83,60.27L25.27,61.7L25.71,61.7L26.16,63.15L27.04,60.27L27.49,61.7L28.37,67.5L28.82,60.27L29.26,67.5L29.7,63.15L30.15,58.84L30.59,70.44L31.03,60.27L31.92,63.15L32.36,60.27L32.81,66.05L33.25,61.7L33.69,60.27L34.14,63.15L35.47,57.41L35.91,60.27L36.8,60.27L37.24,63.15L38.57,58.84L39.01,63.15L39.9,57.41L40.34,60.27L40.79,61.7L41.23,57.41L41.67,61.7L42.12,58.84L42.56,58.84L43,68.97L43.45,60.27L43.89,68.97L44.33,61.7L45.22,67.5L45.66,57.41L46.11,55.99L46.55,58.84L47.44,67.5L47.88,61.7L48.32,58.84L48.77,61.7L49.21,57.41L49.65,58.84L50.1,60.27L50.98,66.05L51.43,63.15L51.87,66.05L52.31,63.15L53.2,55.99L53.64,61.7L54.09,61.7L54.53,58.84L56.3,73.39L56.75,73.39L58.08,63.15L58.52,64.59L58.96,63.15L59.41,64.59L59.85,64.59L60.29,66.05L60.74,61.7L61.18,68.97L61.62,68.97L62.07,64.59L62.95,64.59L63.4,66.05L64.28,58.84L64.73,60.27L66.06,55.99L66.5,55.99L66.94,55.99L67.39,57.41L68.27,55.99L68.72,61.7L69.16,55.99L69.6,58.84L70.05,57.41L70.49,57.41L70.93,61.7L71.38,55.99L71.82,57.41L72.26,55.99L73.59,60.27L74.04,66.05L74.48,57.41L74.92,58.84L75.37,70.44L76.7,54.57L77.14,61.7L77.58,61.7L78.03,60.27L78.47,57.41L78.91,60.27L79.8,53.16L80.24,53.16L80.69,54.57L81.13,61.7L81.57,60.27L82.02,63.15L83.35,67.5L83.79,68.97L84.68,55.99L85.12,55.99L85.56,58.84L86.01,57.41L86.45,54.57L87.78,54.57L88.22,55.99L88.67,55.99L89.11,58.84L89.55,61.7L90,55.99L90.44,55.99L90.88,54.57L91.77,57.41L92.21,54.57L93.1,54.57L93.54,53.16L94.43,55.99L94.87,54.57L95.32,55.99L95.76,54.57L96.65,58.84L97.09,67.5L98.86,57.41L99.31,60.27L100.19,53.16L100.64,58.84L101.08,58.84L101.52,54.57L102.85,74.88L103.3,60.27L103.74,54.57L104.18,57.41L104.63,58.84L105.07,58.84L105.51,54.57L106.84,61.7L107.29,60.27L107.73,61.7L108.17,71.91L109.06,58.84L109.5,57.41L109.95,60.27L110.39,57.41L110.83,53.16L111.28,54.57L111.72,58.84L113.05,53.16L113.49,57.41L113.94,60.27L114.38,55.99L114.82,55.99L115.27,58.84L116.6,54.57L117.04,54.57L117.93,54.57L118.37,55.99L119.26,53.16L119.7,54.57L120.14,55.99L120.59,53.16L121.03,53.16L121.47,55.99L122.8,53.16L123.25,53.16L123.69,58.84L124.13,55.99L124.58,53.16L125.02,54.57L125.46,58.84L126.35,55.99L126.79,55.99L127.24,54.57L127.68,64.59L128.12,53.16L128.57,55.99L129.01,53.16L129.9,55.99L130.34,54.57L131.23,55.99L131.67,54.57L132.11,54.57L132.56,53.16L133.44,51.76L133.89,51.76L134.33,50.36L134.77,54.57L135.22,51.76L135.66,55.99L136.55,50.36L136.99,51.76L137.43,53.16L137.88,58.84L139.21,51.76L139.65,51.76L140.54,57.41L140.98,53.16L141.42,55.99L141.87,51.76L142.75,57.41L143.2,54.57L144.08,51.76L144.53,54.57L144.97,51.76L145.41,55.99L145.86,54.57L146.3,55.99L146.74,55.99L147.19,54.57L147.63,53.16L148.07,57.41L148.52,71.91L148.96,60.27L150.29,55.99L150.73,55.99L151.18,57.41L151.62,54.57L152.06,53.16L152.51,48.96L153.39,48.96L153.84,50.36L154.28,50.36L154.72,51.76L156.94,51.76L157.38,60.27L157.83,61.7L158.27,71.91" style="vector-effect: non-scaling-stroke; fill: none; stroke: rgb(13, 8, 135); stroke-opacity: 1; stroke-width: 2px; opacity: 1;"/></g><g class="points"/><g class="text"/></g></g></g><g class="overplot"/><path class="xlines-above crisp" d="M243.73,220.5H403" style="fill: none; stroke-width: 1px; stroke: rgb(36, 36, 36); stroke-opacity: 1;"/><path class="ylines-above crisp" d="M244.23,60V220" style="fill: none; stroke-width: 1px; stroke: rgb(36, 36, 36); stroke-opacity: 1;"/><g class="overlines-above"/><g class="xaxislayer-above"><path class="x2tick ticks crisp" d="M0,221v5" transform="translate(288.62,0)" style="stroke: rgb(68, 68, 68); stroke-opacity: 1; stroke-width: 1px;"/><path class="x2tick ticks crisp" d="M0,221v5" transform="translate(332.95,0)" style="stroke: rgb(68, 68, 68); stroke-opacity: 1; stroke-width: 1px;"/><path class="x2tick ticks crisp" d="M0,221v5" transform="translate(377.28999999999996,0)" style="stroke: rgb(68, 68, 68); stroke-opacity: 1; stroke-width: 1px;"/><g class="x2tick"><text text-anchor="middle" x="0" y="240.4" transform="translate(288.62,0)" style="font-family: 'Open Sans', verdana, arial, sans-serif; font-size: 12px; fill: rgb(36, 36, 36); fill-opacity: 1; white-space: pre; opacity: 1;">100</text></g><g class="x2tick"><text text-anchor="middle" x="0" y="240.4" style="font-family: 'Open Sans', verdana, arial, sans-serif; font-size: 12px; fill: rgb(36, 36, 36); fill-opacity: 1; white-space: pre; opacity: 1;" transform="translate(332.95,0)">200</text></g><g class="x2tick"><text text-anchor="middle" x="0" y="240.4" style="font-family: 'Open Sans', verdana, arial, sans-serif; font-size: 12px; fill: rgb(36, 36, 36); fill-opacity: 1; white-space: pre; opacity: 1;" transform="translate(377.28999999999996,0)">300</text></g></g><g class="yaxislayer-above"><path class="y2tick ticks crisp" d="M243.73,0h-5" transform="translate(0,203.03)" style="stroke: rgb(68, 68, 68); stroke-opacity: 1; stroke-width: 1px;"/><path class="y2tick ticks crisp" d="M243.73,0h-5" transform="translate(0,169.09)" style="stroke: rgb(68, 68, 68); stroke-opacity: 1; stroke-width: 1px;"/><path class="y2tick ticks crisp" d="M243.73,0h-5" transform="translate(0,137.87)" style="stroke: rgb(68, 68, 68); stroke-opacity: 1; stroke-width: 1px;"/><path class="y2tick ticks crisp" d="M243.73,0h-5" transform="translate(0,108.96000000000001)" style="stroke: rgb(68, 68, 68); stroke-opacity: 1; stroke-width: 1px;"/><path class="y2tick ticks crisp" d="M243.73,0h-5" transform="translate(0,82.05)" style="stroke: rgb(68, 68, 68); stroke-opacity: 1; stroke-width: 1px;"/></g><g class="overaxes-above"/></g></g><g class="polarlayer"/><g class="smithlayer"/><g class="ternarylayer"/><g class="geolayer"/><g class="funnelarealayer"/><g class="pielayer"/><g class="iciclelayer"/><g class="treemaplayer"/><g class="sunburstlayer"/><g class="glimages"/><defs id="topdefs-7ef03b"><g class="clips"/><clipPath id="legend7ef03b"><rect width="79" height="48" x="0" y="0"/></clipPath></defs><g class="layer-above"><g class="imagelayer"/><g class="shapelayer"/></g><g class="infolayer"><g class="legend" pointer-events="all" transform="translate(409.46,60)"><rect class="bg" shape-rendering="crispEdges" width="79" height="48" x="0" y="0" style="stroke: rgb(68, 68, 68); stroke-opacity: 1; fill: rgb(255, 255, 255); fill-opacity: 1; stroke-width: 0px;"/><g class="scrollbox" transform="" clip-path="url(#legend7ef03b)"><text class="legendtitletext" text-anchor="start" x="2" y="18.2" style="font-family: 'Open Sans', verdana, arial, sans-serif; font-size: 14px; fill: rgb(36, 36, 36); fill-opacity: 1; white-space: pre;">DMS_conc</text><g class="groups" transform=""><g class="traces" transform="translate(0,32.7)" style="opacity: 1;"><text class="legendtext" text-anchor="start" x="40" y="4.680000000000001" style="font-family: 'Open Sans', verdana, arial, sans-serif; font-size: 12px; fill: rgb(36, 36, 36); fill-opacity: 1; white-space: pre;">85mM</text><g class="layers" style="opacity: 1;"><g class="legendfill"/><g class="legendlines"><path class="js-line" d="M5,0h30" style="fill: none; stroke: rgb(13, 8, 135); stroke-opacity: 1; stroke-width: 2px;"/></g><g class="legendsymbols"><g class="legendpoints"/></g></g><rect class="legendtoggle" x="0" y="-9.5" width="73.34375" height="19" style="fill: rgb(0, 0, 0); fill-opacity: 0;"/></g></g></g><rect class="scrollbar" rx="20" ry="3" width="0" height="0" x="0" y="0" style="fill: rgb(128, 139, 164); fill-opacity: 1;"/></g><g class="g-gtitle"><text class="gtitle" x="25" y="30" text-anchor="start" dy="0em" style="font-family: 'Open Sans', verdana, arial, sans-serif; font-size: 17px; fill: rgb(36, 36, 36); opacity: 1; font-weight: normal; white-space: pre;">RT3_Nef19</text></g><g class="g-xtitle"><text class="xtitle" x="159.135" y="268.20625" text-anchor="middle" style="font-family: 'Open Sans', verdana, arial, sans-serif; font-size: 14px; fill: rgb(36, 36, 36); opacity: 1; font-weight: normal; white-space: pre;">position</text></g><g class="g-x2title"><text class="x2title" x="323.865" y="268.20625" text-anchor="middle" style="font-family: 'Open Sans', verdana, arial, sans-serif; font-size: 14px; fill: rgb(36, 36, 36); opacity: 1; font-weight: normal; white-space: pre;">position</text></g><g class="g-ytitle"><text class="ytitle" transform="rotate(-90,26.778125000000003,140)" x="26.778125000000003" y="140" text-anchor="middle" style="font-family: 'Open Sans', verdana, arial, sans-serif; font-size: 14px; fill: rgb(36, 36, 36); opacity: 1; font-weight: normal; white-space: pre;">coverage</text></g><g class="g-y2title"/><g class="annotation" data-index="0" style="opacity: 1;"><g class="annotation-text-g" transform="rotate(0,159.135,51)"><g class="cursor-pointer" transform="translate(143,42)"><rect class="bg" x="0.5" y="0.5" width="32" height="17" style="stroke-width: 1px; stroke: rgb(0, 0, 0); stroke-opacity: 0; fill: rgb(0, 0, 0); fill-opacity: 0;"/><text class="annotation-text" text-anchor="middle" x="16.34375" y="13" style="font-family: 'Open Sans', verdana, arial, sans-serif; font-size: 12px; fill: rgb(36, 36, 36); fill-opacity: 1; white-space: pre;">Rep1</text></g></g></g><g class="annotation" data-index="1" style="opacity: 1;"><g class="annotation-text-g" transform="rotate(0,323.865,51)"><g class="cursor-pointer" transform="translate(307,42)"><rect class="bg" x="0.5" y="0.5" width="32" height="17" style="stroke-width: 1px; stroke: rgb(0, 0, 0); stroke-opacity: 0; fill: rgb(0, 0, 0); fill-opacity: 0;"/><text class="annotation-text" text-anchor="middle" x="16.34375" y="13" style="font-family: 'Open Sans', verdana, arial, sans-serif; font-size: 12px; fill: rgb(36, 36, 36); fill-opacity: 1; white-space: pre;">Rep2</text></g></g></g></g></svg>