<svg class="main-svg" xmlns="http://www.w3.org/2000/svg" xmlns:xlink="http://www.w3.org/1999/xlink" width="500" height="300" style="" viewBox="0 0 500 300"><rect x="0" y="0" width="500" height="300" style="fill: rgb(255, 255, 255); fill-opacity: 1;"/><defs id="defs-1773f8"><g class="clips"><clipPath id="clip1773f8xyplot" class="plotclip"><rect width="158.27" height="160"/></clipPath><clipPath id="clip1773f8x2y2plot" class="plotclip"><rect width="158.27" height="160"/></clipPath><clipPath class="axesclip" id="clip1773f8x"><rect x="80" y="0" width="158.27" height="300"/></clipPath><clipPath class="axesclip" id="clip1773f8y"><rect x="0" y="60" width="500" height="160"/></clipPath><clipPath class="axesclip" id="clip1773f8xy"><rect x="80" y="60" width="158.27" height="160"/></clipPath><clipPath class="axesclip" id="clip1773f8y2"><rect x="0" y="60" width="500" height="160"/></clipPath><clipPath class="axesclip" id="clip1773f8xy2"><rect x="80" y="60" width="158.27" height="160"/></clipPath><clipPath class="axesclip" id="clip1773f8x2"><rect x="244.73" y="0" width="158.27" height="300"/></clipPath><clipPath class="axesclip" id="clip1773f8x2y"><rect x="244.73" y="60" width="158.27" height="160"/></clipPath><clipPath class="axesclip" id="clip1773f8x2y2"><rect x="244.73" y="60" width="158.27" height="160"/></clipPath></g><g class="gradients"/><g class="patterns"/></defs><g class="bglayer"/><g class="layer-below"><g class="imagelayer"/><g class="shapelayer"/></g><g class="cartesianlayer"><g class="subplot xy"><g class="layer-subplot"><g class="shapelayer"/><g class="imagelayer"/></g><g class="minor-gridlayer"><g class="x"/><g class="y"/></g><g class="gridlayer"><g class="x"/><g class="y"><path class="ygrid crisp" transform="translate(0,197.27)" d="M80,0h158.27" style="stroke: rgb(232, 232, 232); stroke-opacity: 1; stroke-width: 1px;"/><path class="ygrid crisp" transform="translate(0,164.55)" d="M80,0h158.27" style="stroke: rgb(232, 232, 232); stroke-opacity: 1; stroke-width: 1px;"/><path class="ygrid crisp" transform="translate(0,131.82)" d="M80,0h158.27" style="stroke: rgb(232, 232, 232); stroke-opacity: 1; stroke-width: 1px;"/><path class="ygrid crisp" transform="translate(0,99.09)" d="M80,0h158.27" style="stroke: rgb(232, 232, 232); stroke-opacity: 1; stroke-width: 1px;"/><path class="ygrid crisp" transform="translate(0,66.36)" d="M80,0h158.27" style="stroke: rgb(232, 232, 232); stroke-opacity: 1; stroke-width: 1px;"/></g></g><g class="zerolinelayer"/><path class="xlines-below"/><path class="ylines-below"/><g class="overlines-below"/><g class="xaxislayer-below"/><g class="yaxislayer-below"/><g class="overaxes-below"/><g class="plot" transform="translate(80,60)" clip-path="url(#clip1773f8xyplot)"><g class="scatterlayer mlayer"><g class="trace scatter trace87b21f" style="stroke-miterlimit: 2; opacity: 1;"><g class="fills"/><g class="errorbars"/><g class="lines"><path class="js-line" d="M0,152L0.39,152L0.79,148.73L1.18,147.09L1.58,112.73L4.74,78.36L5.13,83.27L6.71,58.73L7.1,58.73L7.5,58.73L7.89,62L8.29,62L8.68,63.64L9.08,63.64L9.47,58.73L9.87,58.73L10.26,62L11.45,55.45L11.84,57.09L12.24,57.09L12.63,75.09L13.81,57.09L14.21,57.09L15.39,62L15.79,60.36L17.76,44L18.16,45.64L18.95,44L19.34,48.91L20.13,44L20.52,47.27L20.92,42.36L21.31,44L21.71,42.36L23.29,37.45L23.68,39.09L24.47,39.09L24.87,42.36L25.26,48.91L25.65,37.45L26.05,42.36L26.44,40.73L26.84,40.73L27.63,35.82L28.02,39.09L28.81,35.82L29.21,42.36L30,39.09L30.39,39.09L31.58,34.18L31.97,37.45L33.15,37.45L33.55,35.82L34.34,35.82L34.73,34.18L35.92,42.36L36.31,35.82L36.71,34.18L37.1,37.45L37.5,37.45L37.89,35.82L38.28,44L38.68,39.09L39.07,44L40.65,35.82L41.05,39.09L41.84,42.36L42.23,48.91L43.81,35.82L44.21,35.82L44.6,39.09L44.99,37.45L45.39,35.82L45.78,35.82L46.18,40.73L46.57,40.73L46.97,34.18L47.36,35.82L47.76,42.36L48.15,40.73L48.55,29.27L48.94,30.91L49.34,29.27L50.13,39.09L50.52,37.45L50.91,34.18L51.31,35.82L51.7,35.82L52.1,39.09L52.49,37.45L52.89,37.45L53.28,44L53.68,34.18L54.07,30.91L54.47,37.45L55.65,30.91L56.05,27.64L57.23,34.18L57.62,30.91L58.02,32.55L58.41,27.64L59.2,24.36L59.6,29.27L59.99,32.55L60.39,29.27L60.78,26L61.18,32.55L61.57,32.55L61.97,27.64L62.36,29.27L62.76,37.45L63.54,26L63.94,26L64.33,26L64.73,29.27L65.12,32.55L65.52,30.91L65.91,29.27L66.7,22.73L67.1,27.64L67.89,24.36L68.28,27.64L68.68,29.27L69.07,35.82L69.47,22.73L69.86,26L70.25,24.36L70.65,24.36L71.04,21.09L71.44,21.09L71.83,24.36L73.02,30.91L73.41,40.73L73.81,26L74.2,30.91L74.6,26L75.78,21.09L76.17,26L76.96,21.09L77.36,26L78.54,21.09L78.94,22.73L79.33,22.73L79.73,24.36L80.12,19.45L80.52,26L81.31,21.09L81.7,21.09L82.1,22.73L82.49,19.45L83.67,35.82L84.07,29.27L85.25,22.73L85.65,24.36L86.04,24.36L86.44,27.64L86.83,39.09L87.23,22.73L87.62,24.36L88.02,22.73L88.8,26L89.2,26L89.99,30.91L90.38,26L90.78,24.36L91.17,30.91L91.57,42.36L91.96,39.09L92.36,24.36L92.75,24.36L93.15,26L93.94,22.73L94.33,24.36L94.73,24.36L95.12,26L95.91,32.55L96.3,30.91L97.49,17.82L97.88,19.45L98.28,16.18L98.67,17.82L99.07,17.82L99.86,14.55L100.25,17.82L101.04,14.55L101.43,16.18L102.22,11.27L102.62,11.27L103.01,11.27L103.41,17.82L104.59,9.64L104.99,16.18L105.38,11.27L105.78,16.18L106.57,21.09L106.96,16.18L107.75,16.18L108.14,22.73L108.54,16.18L108.93,22.73L109.33,14.55L109.72,16.18L110.12,17.82L111.3,12.91L111.7,16.18L112.09,8L112.49,11.27L112.88,14.55L113.28,16.18L113.67,26L114.06,19.45L114.46,24.36L114.85,26L115.25,27.64L115.64,21.09L116.83,29.27L117.22,24.36L118.41,17.82L118.8,17.82L119.2,21.09L119.59,16.18L119.99,21.09L120.38,17.82L120.77,19.45L121.56,16.18L121.96,16.18L122.35,17.82L122.75,29.27L123.54,16.18L123.93,17.82L124.33,17.82L124.72,16.18L125.12,19.45L125.51,19.45L125.91,22.73L126.3,19.45L126.69,22.73L127.09,26L127.48,21.09L128.27,17.82L128.67,24.36L129.46,19.45L129.85,21.09L130.25,26L130.64,21.09L131.04,21.09L131.43,24.36L131.83,16.18L132.22,19.45L132.62,19.45L134.59,34.18L134.98,30.91L136.17,24.36L136.56,27.64L136.96,30.91L137.35,27.64L137.75,27.64L138.14,26L138.54,29.27L138.93,27.64L139.32,26L140.11,22.73L140.51,29.27L141.3,29.27L141.69,34.18L142.09,32.55L142.48,27.64L144.06,27.64L144.46,30.91L145.64,34.18L146.03,32.55L146.43,34.18L146.82,32.55L148.01,32.55L148.4,35.82L148.8,37.45L149.19,34.18L149.98,45.64L150.38,40.73L150.77,37.45L151.17,39.09L151.56,44L151.95,47.27L152.35,39.09L153.53,62L153.93,63.64L155.11,86.55L155.51,83.27L155.9,84.91L156.3,96.36L157.09,102.91L157.48,120.91L158.27,148.73" style="vector-effect: non-scaling-stroke; fill: none; stroke: rgb(13, 8, 135); stroke-opacity: 1; stroke-width: 2px; opacity: 1;"/></g><g class="points"/><g class="text"/></g></g></g><g class="overplot"/><path class="xlines-above crisp" d="M79,220.5H238.27" style="fill: none; stroke-width: 1px; stroke: rgb(36, 36, 36); stroke-opacity: 1;"/><path class="ylines-above crisp" d="M79.5,60V220" style="fill: none; stroke-width: 1px; stroke: rgb(36, 36, 36); stroke-opacity: 1;"/><g class="overlines-above"/><g class="xaxislayer-above"><path class="xtick ticks crisp" d="M0,221v5" transform="translate(119.07,0)" style="stroke: rgb(68, 68, 68); stroke-opacity: 1; stroke-width: 1px;"/><path class="xtick ticks crisp" d="M0,221v5" transform="translate(158.54000000000002,0)" style="stroke: rgb(68, 68, 68); stroke-opacity: 1; stroke-width: 1px;"/><path class="xtick ticks crisp" d="M0,221v5" transform="translate(198.01,0)" style="stroke: rgb(68, 68, 68); stroke-opacity: 1; stroke-width: 1px;"/><path class="xtick ticks crisp" d="M0,221v5" transform="translate(237.48,0)" style="stroke: rgb(68, 68, 68); stroke-opacity: 1; stroke-width: 1px;"/><g class="xtick"><text text-anchor="middle" x="0" y="240.4" transform="translate(119.07,0)" style="font-family: 'Open Sans', verdana, arial, sans-serif; font-size: 12px; fill: rgb(36, 36, 36); fill-opacity: 1; white-space: pre; opacity: 1;">100</text></g><g class="xtick"><text text-anchor="middle" x="0" y="240.4" style="font-family: 'Open Sans', verdana, arial, sans-serif; font-size: 12px; fill: rgb(36, 36, 36); fill-opacity: 1; white-space: pre; opacity: 1;" transform="translate(158.54000000000002,0)">200</text></g><g class="xtick"><text text-anchor="middle" x="0" y="240.4" style="font-family: 'Open Sans', verdana, arial, sans-serif; font-size: 12px; fill: rgb(36, 36, 36); fill-opacity: 1; white-space: pre; opacity: 1;" transform="translate(198.01,0)">300</text></g><g class="xtick"><text text-anchor="middle" x="0" y="240.4" style="font-family: 'Open Sans', verdana, arial, sans-serif; font-size: 12px; fill: rgb(36, 36, 36); fill-opacity: 1; white-space: pre; opacity: 1;" transform="translate(237.48,0)">400</text></g></g><g class="yaxislayer-above"><path class="ytick ticks crisp" d="M79,0h-5" transform="translate(0,197.27)" style="stroke: rgb(68, 68, 68); stroke-opacity: 1; stroke-width: 1px;"/><path class="ytick ticks crisp" d="M79,0h-5" transform="translate(0,164.55)" style="stroke: rgb(68, 68, 68); stroke-opacity: 1; stroke-width: 1px;"/><path class="ytick ticks crisp" d="M79,0h-5" transform="translate(0,131.82)" style="stroke: rgb(68, 68, 68); stroke-opacity: 1; stroke-width: 1px;"/><path class="ytick ticks crisp" d="M79,0h-5" transform="translate(0,99.09)" style="stroke: rgb(68, 68, 68); stroke-opacity: 1; stroke-width: 1px;"/><path class="ytick ticks crisp" d="M79,0h-5" transform="translate(0,66.36)" style="stroke: rgb(68, 68, 68); stroke-opacity: 1; stroke-width: 1px;"/><g class="ytick"><text text-anchor="end" x="71.6" y="4.199999999999999" transform="translate(0,197.27)" style="font-family: 'Open Sans', verdana, arial, sans-serif; font-size: 12px; fill: rgb(36, 36, 36); fill-opacity: 1; white-space: pre; opacity: 1;">160</text></g><g class="ytick"><text text-anchor="end" x="71.6" y="4.199999999999999" style="font-family: 'Open Sans', verdana, arial, sans-serif; font-size: 12px; fill: rgb(36, 36, 36); fill-opacity: 1; white-space: pre; opacity: 1;" transform="translate(0,164.55)">180</text></g><g class="ytick"><text text-anchor="end" x="71.6" y="4.199999999999999" style="font-family: 'Open Sans', verdana, arial, sans-serif; font-size: 12px; fill: rgb(36, 36, 36); fill-opacity: 1; white-space: pre; opacity: 1;" transform="translate(0,131.82)">200</text></g><g class="ytick"><text text-anchor="end" x="71.6" y="4.199999999999999" style="font-family: 'Open Sans', verdana, arial, sans-serif; font-size: 12px; fill: rgb(36, 36, 36); fill-opacity: 1; white-space: pre; opacity: 1;" transform="translate(0,99.09)">220</text></g><g class="ytick"><text text-anchor="end" x="71.6" y="4.199999999999999" style="font-family: 'Open Sans', verdana, arial, sans-serif; font-size: 12px; fill: rgb(36, 36, 36); fill-opacity: 1; white-space: pre; opacity: 1;" transform="translate(0,66.36)">240</text></g></g><g class="overaxes-above"/></g><g class="subplot x2y2"><g class="layer-subplot"><g class="shapelayer"/><g class="imagelayer"/></g><g class="minor-gridlayer"><g class="x2"/><g class="y2"/></g><g class="gridlayer"><g class="x2"/><g class="y2"><path class="y2grid crisp" transform="translate(0,197.27)" d="M244.73,0h158.27" style="stroke: rgb(232, 232, 232); stroke-opacity: 1; stroke-width: 1px;"/><path class="y2grid crisp" transform="translate(0,164.55)" d="M244.73,0h158.27" style="stroke: rgb(232, 232, 232); stroke-opacity: 1; stroke-width: 1px;"/><path class="y2grid crisp" transform="translate(0,131.82)" d="M244.73,0h158.27" style="stroke: rgb(232, 232, 232); stroke-opacity: 1; stroke-width: 1px;"/><path class="y2grid crisp" transform="translate(0,99.09)" d="M244.73,0h158.27" style="stroke: rgb(232, 232, 232); stroke-opacity: 1; stroke-width: 1px;"/><path class="y2grid crisp" transform="translate(0,66.36)" d="M244.73,0h158.27" style="stroke: rgb(232, 232, 232); stroke-opacity: 1; stroke-width: 1px;"/></g></g><g class="zerolinelayer"/><path class="xlines-below"/><path class="ylines-below"/><g class="overlines-below"/><g class="xaxislayer-below"/><g class="yaxislayer-below"/><g class="overaxes-below"/><g class="plot" transform="translate(244.73,60)" clip-path="url(#clip1773f8x2y2plot)"><g class="scatterlayer mlayer"><g class="trace scatter tracecbc50d" style="stroke-miterlimit: 2; opacity: 1;"><g class="fills"/><g class="errorbars"/><g class="lines"><path class="js-line" d="M0,122.55L1.18,112.73L1.58,83.27L1.97,83.27L2.37,81.64L3.55,73.45L3.95,73.45L4.34,70.18L4.74,71.82L5.13,73.45L7.5,58.73L7.89,58.73L8.68,58.73L9.08,55.45L9.47,63.64L9.87,55.45L10.26,62L10.66,55.45L11.05,53.82L11.45,55.45L12.24,60.36L12.63,70.18L13.02,55.45L13.42,57.09L13.81,55.45L15,55.45L15.39,68.55L16.18,55.45L16.58,57.09L16.97,57.09L17.37,58.73L17.76,53.82L18.16,58.73L18.55,55.45L18.95,53.82L19.34,63.64L19.73,57.09L20.13,53.82L20.52,58.73L20.92,53.82L21.31,55.45L21.71,53.82L22.1,53.82L22.5,52.18L24.08,52.18L24.47,55.45L24.87,55.45L25.26,58.73L26.05,53.82L26.44,53.82L26.84,52.18L27.23,57.09L27.63,52.18L28.02,55.45L28.42,53.82L28.81,60.36L29.21,55.45L29.6,55.45L30.39,57.09L30.79,57.09L31.18,53.82L31.58,55.45L31.97,57.09L32.36,58.73L32.76,55.45L33.15,53.82L33.55,55.45L34.34,58.73L34.73,53.82L35.13,57.09L35.52,55.45L35.92,55.45L36.31,57.09L36.71,55.45L37.1,55.45L37.5,57.09L37.89,57.09L38.28,58.73L38.68,57.09L39.07,60.36L39.86,55.45L40.26,57.09L40.65,53.82L41.05,57.09L42.23,76.73L42.63,65.27L43.81,55.45L44.21,55.45L44.6,55.45L44.99,57.09L45.78,58.73L46.18,66.91L47.36,52.18L47.76,53.82L48.15,53.82L48.55,55.45L48.94,53.82L49.34,53.82L49.73,58.73L50.13,58.73L50.52,60.36L50.91,60.36L51.31,66.91L52.49,57.09L52.89,58.73L53.28,62L53.68,58.73L54.07,57.09L54.47,60.36L55.65,55.45L56.05,57.09L56.44,57.09L56.84,52.18L57.23,55.45L57.62,52.18L58.41,48.91L58.81,50.55L59.6,48.91L59.99,50.55L60.39,48.91L60.78,50.55L61.18,57.09L61.57,52.18L61.97,50.55L62.76,48.91L63.15,48.91L63.54,50.55L63.94,48.91L65.52,55.45L65.91,50.55L66.7,48.91L67.1,52.18L68.28,45.64L68.68,55.45L69.07,58.73L69.47,55.45L69.86,50.55L70.25,53.82L70.65,50.55L71.04,53.82L71.44,50.55L71.83,50.55L72.23,52.18L72.62,50.55L73.02,52.18L73.41,58.73L73.81,50.55L74.2,60.36L74.6,53.82L74.99,48.91L75.39,48.91L75.78,50.55L76.17,53.82L76.57,47.27L76.96,47.27L77.36,48.91L78.54,48.91L78.94,47.27L79.33,45.64L79.73,47.27L80.12,45.64L80.52,50.55L81.31,48.91L81.7,50.55L82.1,50.55L82.49,45.64L82.88,50.55L83.28,45.64L83.67,50.55L84.07,47.27L84.46,47.27L84.86,47.27L85.25,50.55L85.65,52.18L86.04,48.91L86.83,58.73L87.23,50.55L87.62,48.91L88.02,50.55L89.2,53.82L89.59,58.73L89.99,60.36L90.38,50.55L90.78,53.82L91.17,65.27L91.57,78.36L91.96,58.73L92.75,53.82L93.15,58.73L93.54,52.18L93.94,57.09L94.33,60.36L94.73,55.45L95.12,57.09L95.51,55.45L96.3,55.45L96.7,52.18L97.49,52.18L97.88,53.82L99.46,48.91L99.86,52.18L100.25,52.18L100.65,48.91L101.43,48.91L101.83,50.55L102.22,50.55L102.62,47.27L104.2,47.27L104.59,48.91L104.99,47.27L105.38,50.55L106.17,50.55L106.57,48.91L106.96,48.91L107.36,45.64L107.75,53.82L108.14,48.91L108.54,45.64L108.93,45.64L109.33,47.27L109.72,44L110.12,48.91L110.91,48.91L111.3,50.55L112.09,52.18L112.49,52.18L113.28,48.91L113.67,57.09L114.85,50.55L115.25,53.82L116.04,52.18L116.43,52.18L116.83,52.18L117.22,47.27L117.62,47.27L118.01,50.55L118.8,45.64L119.2,47.27L119.99,50.55L120.38,47.27L120.77,60.36L121.17,47.27L121.56,47.27L121.96,48.91L122.35,45.64L122.75,48.91L123.14,48.91L123.54,52.18L124.72,47.27L125.12,48.91L125.51,47.27L125.91,53.82L126.69,48.91L127.09,52.18L127.88,48.91L128.27,48.91L128.67,53.82L129.06,52.18L129.46,50.55L130.25,52.18L130.64,50.55L131.04,50.55L131.43,48.91L131.83,55.45L132.22,52.18L132.62,48.91L133.8,52.18L134.19,50.55L134.98,53.82L135.38,60.36L135.77,48.91L136.17,52.18L136.56,52.18L137.35,53.82L137.75,53.82L138.14,50.55L138.54,52.18L138.93,62L139.32,62L139.72,58.73L140.51,52.18L140.9,52.18L141.3,52.18L141.69,55.45L143.27,48.91L143.67,50.55L144.06,50.55L144.46,48.91L144.85,50.55L145.25,48.91L145.64,50.55L146.03,48.91L146.43,53.82L146.82,48.91L147.22,48.91L147.61,50.55L148.4,48.91L148.8,48.91L149.19,48.91L149.59,60.36L149.98,66.91L150.38,58.73L150.77,57.09L151.17,62L152.35,52.18L152.74,60.36L153.93,70.18L154.32,66.91L155.9,71.82L156.3,76.73L156.69,76.73L157.09,83.27L158.27,109.45" style="vector-effect: non-scaling-stroke; fill: none; stroke: rgb(13, 8, 135); stroke-opacity: 1; stroke-width: 2px; opacity: 1;"/></g><g class="points"/><g class="text"/></g></g></g><g class="overplot"/><path class="xlines-above crisp" d="M243.73,220.5H403" style="fill: none; stroke-width: 1px; stroke: rgb(36, 36, 36); stroke-opacity: 1;"/><path class="ylines-above crisp" d="M244.23,60V220" style="fill: none; stroke-width: 1px; stroke: rgb(36, 36, 36); stroke-opacity: 1;"/><g class="overlines-above"/><g class="xaxislayer-above"><path class="x2tick ticks crisp" d="M0,221v5" transform="translate(283.8,0)" style="stroke: rgb(68, 68, 68); stroke-opacity: 1; stroke-width: 1px;"/><path class="x2tick ticks crisp" d="M0,221v5" transform="translate(323.27,0)" style="stroke: rgb(68, 68, 68); stroke-opacity: 1; stroke-width: 1px;"/><path class="x2tick ticks crisp" d="M0,221v5" transform="translate(362.74,0)" style="stroke: rgb(68, 68, 68); stroke-opacity: 1; stroke-width: 1px;"/><path class="x2tick ticks crisp" d="M0,221v5" transform="translate(402.21,0)" style="stroke: rgb(68, 68, 68); stroke-opacity: 1; stroke-width: 1px;"/><g class="x2tick"><text text-anchor="middle" x="0" y="240.4" transform="translate(283.8,0)" style="font-family: 'Open Sans', verdana, arial, sans-serif; font-size: 12px; fill: rgb(36, 36, 36); fill-opacity: 1; white-space: pre; opacity: 1;">100</text></g><g class="x2tick"><text text-anchor="middle" x="0" y="240.4" style="font-family: 'Open Sans', verdana, arial, sans-serif; font-size: 12px; fill: rgb(36, 36, 36); fill-opacity: 1; white-space: pre; opacity: 1;" transform="translate(323.27,0)">200</text></g><g class="x2tick"><text text-anchor="middle" x="0" y="240.4" style="font-family: 'Open Sans', verdana, arial, sans-serif; font-size: 12px; fill: rgb(36, 36, 36); fill-opacity: 1; white-space: pre; opacity: 1;" transform="translate(362.74,0)">300</text></g><g class="x2tick"><text text-anchor="middle" x="0" y="240.4" style="font-family: 'Open Sans', verdana, arial, sans-serif; font-size: 12px; fill: rgb(36, 36, 36); fill-opacity: 1; white-space: pre; opacity: 1;" transform="translate(402.21,0)">400</text></g></g><g class="yaxislayer-above"><path class="y2tick ticks crisp" d="M243.73,0h-5" transform="translate(0,197.27)" style="stroke: rgb(68, 68, 68); stroke-opacity: 1; stroke-width: 1px;"/><path class="y2tick ticks crisp" d="M243.73,0h-5" transform="translate(0,164.55)" style="stroke: rgb(68, 68, 68); stroke-opacity: 1; stroke-width: 1px;"/><path class="y2tick ticks crisp" d="M243.73,0h-5" transform="translate(0,131.82)" style="stroke: rgb(68, 68, 68); stroke-opacity: 1; stroke-width: 1px;"/><path class="y2tick ticks crisp" d="M243.73,0h-5" transform="translate(0,99.09)" style="stroke: rgb(68, 68, 68); stroke-opacity: 1; stroke-width: 1px;"/><path class="y2tick ticks crisp" d="M243.73,0h-5" transform="translate(0,66.36)" style="stroke: rgb(68, 68, 68); stroke-opacity: 1; stroke-width: 1px;"/></g><g class="overaxes-above"/></g></g><g class="polarlayer"/><g class="smithlayer"/><g class="ternarylayer"/><g class="geolayer"/><g class="funnelarealayer"/><g class="pielayer"/><g class="iciclelayer"/><g class="treemaplayer"/><g class="sunburstlayer"/><g class="glimages"/><defs id="topdefs-1773f8"><g class="clips"/><clipPath id="legend1773f8"><rect width="79" height="48" x="0" y="0"/></clipPath></defs><g class="layer-above"><g class="imagelayer"/><g class="shapelayer"/></g><g class="infolayer"><g class="legend" pointer-events="all" transform="translate(409.46,60)"><rect class="bg" shape-rendering="crispEdges" width="79" height="48" x="0" y="0" style="stroke: rgb(68, 68, 68); stroke-opacity: 1; fill: rgb(255, 255, 255); fill-opacity: 1; stroke-width: 0px;"/><g class="scrollbox" transform="" clip-path="url(#legend1773f8)"><text class="legendtitletext" text-anchor="start" x="2" y="18.2" style="font-family: 'Open Sans', verdana, arial, sans-serif; font-size: 14px; fill: rgb(36, 36, 36); fill-opacity: 1; white-space: pre;">DMS_conc</text><g class="groups" transform=""><g class="traces" transform="translate(0,32.7)" style="opacity: 1;"><text class="legendtext" text-anchor="start" x="40" y="4.680000000000001" style="font-family: 'Open Sans', verdana, arial, sans-serif; font-size: 12px; fill: rgb(36, 36, 36); fill-opacity: 1; white-space: pre;">85mM</text><g class="layers" style="opacity: 1;"><g class="legendfill"/><g class="legendlines"><path class="js-line" d="M5,0h30" style="fill: none; stroke: rgb(13, 8, 135); stroke-opacity: 1; stroke-width: 2px;"/></g><g class="legendsymbols"><g class="legendpoints"/></g></g><rect class="legendtoggle" x="0" y="-9.5" width="73.34375" height="19" style="fill: rgb(0, 0, 0); fill-opacity: 0;"/></g></g></g><rect class="scrollbar" rx="20" ry="3" width="0" height="0" x="0" y="0" style="fill: rgb(128, 139, 164); fill-opacity: 1;"/></g><g class="g-gtitle"><text class="gtitle" x="25" y="30" text-anchor="start" dy="0em" style="font-family: 'Open Sans', verdana, arial, sans-serif; font-size: 17px; fill: rgb(36, 36, 36); opacity: 1; font-weight: normal; white-space: pre;">RT2_Env8_RT3_Rev6</text></g><g class="g-xtitle"><text class="xtitle" x="159.135" y="268.20625" text-anchor="middle" style="font-family: 'Open Sans', verdana, arial, sans-serif; font-size: 14px; fill: rgb(36, 36, 36); opacity: 1; font-weight: normal; white-space: pre;">position</text></g><g class="g-x2title"><text class="x2title" x="323.865" y="268.20625" text-anchor="middle" style="font-family: 'Open Sans', verdana, arial, sans-serif; font-size: 14px; fill: rgb(36, 36, 36); opacity: 1; font-weight: normal; white-space: pre;">position</text></g><g class="g-ytitle"><text class="ytitle" transform="rotate(-90,26.778125000000003,140)" x="26.778125000000003" y="140" text-anchor="middle" style="font-family: 'Open Sans', verdana, arial, sans-serif; font-size: 14px; fill: rgb(36, 36, 36); opacity: 1; font-weight: normal; white-space: pre;">coverage</text></g><g class="g-y2title"/><g class="annotation" data-index="0" style="opacity: 1;"><g class="annotation-text-g" transform="rotate(0,159.135,51)"><g class="cursor-pointer" transform="translate(143,42)"><rect class="bg" x="0.5" y="0.5" width="32" height="17" style="stroke-width: 1px; stroke: rgb(0, 0, 0); stroke-opacity: 0; fill: rgb(0, 0, 0); fill-opacity: 0;"/><text class="annotation-text" text-anchor="middle" x="16.34375" y="13" style="font-family: 'Open Sans', verdana, arial, sans-serif; font-size: 12px; fill: rgb(36, 36, 36); fill-opacity: 1; white-space: pre;">Rep1</text></g></g></g><g class="annotation" data-index="1" style="opacity: 1;"><g class="annotation-text-g" transform="rotate(0,323.865,51)"><g class="cursor-pointer" transform="translate(307,42)"><rect class="bg" x="0.5" y="0.5" width="32" height="17" style="stroke-width: 1px; stroke: rgb(0, 0, 0); stroke-opacity: 0; fill: rgb(0, 0, 0); fill-opacity: 0;"/><text class="annotation-text" text-anchor="middle" x="16.34375" y="13" style="font-family: 'Open Sans', verdana, arial, sans-serif; font-size: 12px; fill: rgb(36, 36, 36); fill-opacity: 1; white-space: pre;">Rep2</text></g></g></g></g></svg>