<svg class="main-svg" xmlns="http://www.w3.org/2000/svg" xmlns:xlink="http://www.w3.org/1999/xlink" width="500" height="300" style="" viewBox="0 0 500 300"><rect x="0" y="0" width="500" height="300" style="fill: rgb(255, 255, 255); fill-opacity: 1;"/><defs id="defs-647b98"><g class="clips"><clipPath id="clip647b98xyplot" class="plotclip"><rect width="158.27" height="160"/></clipPath><clipPath id="clip647b98x2y2plot" class="plotclip"><rect width="158.27" height="160"/></clipPath><clipPath class="axesclip" id="clip647b98x"><rect x="80" y="0" width="158.27" height="300"/></clipPath><clipPath class="axesclip" id="clip647b98y"><rect x="0" y="60" width="500" height="160"/></clipPath><clipPath class="axesclip" id="clip647b98xy"><rect x="80" y="60" width="158.27" height="160"/></clipPath><clipPath class="axesclip" id="clip647b98y2"><rect x="0" y="60" width="500" height="160"/></clipPath><clipPath class="axesclip" id="clip647b98xy2"><rect x="80" y="60" width="158.27" height="160"/></clipPath><clipPath class="axesclip" id="clip647b98x2"><rect x="244.73" y="0" width="158.27" height="300"/></clipPath><clipPath class="axesclip" id="clip647b98x2y"><rect x="244.73" y="60" width="158.27" height="160"/></clipPath><clipPath class="axesclip" id="clip647b98x2y2"><rect x="244.73" y="60" width="158.27" height="160"/></clipPath></g><g class="gradients"/><g class="patterns"/></defs><g class="bglayer"/><g class="layer-below"><g class="imagelayer"/><g class="shapelayer"/></g><g class="cartesianlayer"><g class="subplot xy"><g class="layer-subplot"><g class="shapelayer"/><g class="imagelayer"/></g><g class="minor-gridlayer"><g class="x"/><g class="y"/></g><g class="gridlayer"><g class="x"/><g class="y"><path class="ygrid crisp" transform="translate(0,159.5)" d="M80,0h158.27" style="stroke: rgb(232, 232, 232); stroke-opacity: 1; stroke-width: 1px;"/><path class="ygrid crisp" transform="translate(0,84.5)" d="M80,0h158.27" style="stroke: rgb(232, 232, 232); stroke-opacity: 1; stroke-width: 1px;"/></g></g><g class="zerolinelayer"/><path class="xlines-below"/><path class="ylines-below"/><g class="overlines-below"/><g class="xaxislayer-below"/><g class="yaxislayer-below"/><g class="overaxes-below"/><g class="plot" transform="translate(80,60)" clip-path="url(#clip647b98xyplot)"><g class="scatterlayer mlayer"><g class="trace scatter tracefdf0c0" style="stroke-miterlimit: 2; opacity: 1;"><g class="fills"/><g class="errorbars"/><g class="lines"><path class="js-line" d="M0,110L1.33,102.5L1.77,59L2.22,60.5L2.66,51.5L3.1,51.5L3.55,48.5L5.32,36.5L5.76,42.5L6.21,39.5L6.65,27.5L7.54,24.5L7.98,17L9.31,21.5L9.75,20L10.64,21.5L11.08,32L11.53,36.5L11.97,29L12.41,41L12.86,32L13.3,36.5L13.74,33.5L14.19,51.5L14.63,32L15.07,33.5L15.52,33.5L15.96,32L16.4,33.5L16.85,33.5L17.29,39.5L18.18,29L18.62,32L19.06,30.5L19.51,30.5L19.95,38L20.39,42.5L20.84,35L21.28,35L21.72,44L22.61,29L23.05,30.5L23.5,30.5L23.94,29L24.83,26L25.27,29L25.71,26L26.16,29L26.6,26L27.04,27.5L27.49,30.5L27.93,33.5L28.37,29L28.82,24.5L29.26,32L30.15,24.5L30.59,32L31.03,26L31.48,30.5L32.36,23L32.81,24.5L34.14,29L34.58,24.5L35.91,33.5L36.35,32L36.8,27.5L37.68,27.5L38.13,29L39.01,29L39.46,26L39.9,26L40.34,30.5L40.79,32L41.23,27.5L41.67,33.5L42.12,29L42.56,32L43,53L43.45,30.5L43.89,42.5L44.33,30.5L44.78,29L45.22,30.5L46.11,27.5L46.55,30.5L47.88,33.5L48.32,29L48.77,30.5L49.21,29L49.65,29L50.1,30.5L51.43,23L51.87,32L53.2,23L53.64,26L54.53,24.5L54.97,24.5L55.42,27.5L55.86,39.5L56.75,32L57.19,32L57.63,36.5L58.08,27.5L58.96,36.5L59.41,30.5L59.85,44L60.29,32L60.74,26L61.18,27.5L61.62,30.5L62.07,27.5L62.51,32L64.28,20L64.73,23L66.5,18.5L66.94,18.5L67.39,20L67.83,18.5L68.27,18.5L68.72,26L70.05,18.5L70.49,20L70.93,21.5L71.38,18.5L71.82,21.5L72.26,18.5L73.15,17L73.59,20L74.04,20L74.48,15.5L74.92,17L75.37,36.5L76.7,18.5L77.14,29L77.58,38L78.03,24.5L78.91,17L79.36,17L79.8,20L80.24,17L80.69,17L81.13,18.5L81.57,18.5L82.02,15.5L82.46,18.5L82.9,15.5L83.79,27.5L84.23,18.5L84.68,18.5L85.12,26L85.56,17L86.01,18.5L86.45,17L86.89,17L87.34,15.5L88.22,21.5L88.67,17L89.11,18.5L89.55,23L90.88,15.5L91.33,17L91.77,17L92.21,26L93.54,15.5L93.99,21.5L95.76,14L96.2,21.5L96.65,18.5L97.09,23L97.53,20L97.98,11L98.42,12.5L98.86,11L100.19,15.5L100.64,21.5L101.08,21.5L101.52,12.5L102.85,29L103.3,23L104.18,9.5L104.63,11L105.07,23L105.51,14L105.96,12.5L106.4,15.5L107.29,15.5L107.73,14L108.17,21.5L108.62,17L109.06,11L109.5,12.5L109.95,11L110.83,11L111.28,9.5L112.16,9.5L112.61,12.5L113.05,11L113.49,15.5L113.94,15.5L114.38,12.5L115.71,15.5L116.15,12.5L116.6,11L117.04,17L117.48,11L117.93,12.5L118.37,15.5L119.26,11L119.7,11L120.14,11L120.59,8L121.03,8L121.47,12.5L121.92,12.5L122.36,18.5L123.25,9.5L123.69,11L124.58,8L125.02,9.5L125.46,14L125.91,9.5L126.35,9.5L126.79,15.5L127.24,12.5L127.68,30.5L128.12,11L128.57,12.5L129.01,12.5L129.45,11L129.9,12.5L130.34,11L130.78,15.5L131.23,17L131.67,11L132.11,9.5L132.56,11L134.33,11L134.77,15.5L135.22,14L135.66,23L136.1,11L136.55,14L136.99,12.5L137.43,12.5L137.88,18.5L138.76,14L139.21,14L139.65,14L140.09,17L140.54,18.5L140.98,15.5L141.87,18.5L142.31,15.5L142.75,24.5L143.2,18.5L143.64,15.5L144.53,18.5L144.97,15.5L146.3,24.5L146.74,18.5L147.19,21.5L147.63,17L148.07,18.5L148.52,32L148.96,17L149.4,18.5L149.85,12.5L151.18,18.5L151.62,14L152.51,9.5L152.95,9.5L156.05,9.5L156.5,11L156.94,14L157.38,32L158.27,56" style="vector-effect: non-scaling-stroke; fill: none; stroke: rgb(13, 8, 135); stroke-opacity: 1; stroke-width: 2px; opacity: 1;"/></g><g class="points"/><g class="text"/></g></g></g><g class="overplot"/><path class="xlines-above crisp" d="M79,220.5H238.27" style="fill: none; stroke-width: 1px; stroke: rgb(36, 36, 36); stroke-opacity: 1;"/><path class="ylines-above crisp" d="M79.5,60V220" style="fill: none; stroke-width: 1px; stroke: rgb(36, 36, 36); stroke-opacity: 1;"/><g class="overlines-above"/><g class="xaxislayer-above"><path class="xtick ticks crisp" d="M0,221v5" transform="translate(123.89,0)" style="stroke: rgb(68, 68, 68); stroke-opacity: 1; stroke-width: 1px;"/><path class="xtick ticks crisp" d="M0,221v5" transform="translate(168.22,0)" style="stroke: rgb(68, 68, 68); stroke-opacity: 1; stroke-width: 1px;"/><path class="xtick ticks crisp" d="M0,221v5" transform="translate(212.56,0)" style="stroke: rgb(68, 68, 68); stroke-opacity: 1; stroke-width: 1px;"/><g class="xtick"><text text-anchor="middle" x="0" y="240.4" transform="translate(123.89,0)" style="font-family: 'Open Sans', verdana, arial, sans-serif; font-size: 12px; fill: rgb(36, 36, 36); fill-opacity: 1; white-space: pre; opacity: 1;">100</text></g><g class="xtick"><text text-anchor="middle" x="0" y="240.4" style="font-family: 'Open Sans', verdana, arial, sans-serif; font-size: 12px; fill: rgb(36, 36, 36); fill-opacity: 1; white-space: pre; opacity: 1;" transform="translate(168.22,0)">200</text></g><g class="xtick"><text text-anchor="middle" x="0" y="240.4" style="font-family: 'Open Sans', verdana, arial, sans-serif; font-size: 12px; fill: rgb(36, 36, 36); fill-opacity: 1; white-space: pre; opacity: 1;" transform="translate(212.56,0)">300</text></g></g><g class="yaxislayer-above"><path class="ytick ticks crisp" d="M79,0h-5" transform="translate(0,159.5)" style="stroke: rgb(68, 68, 68); stroke-opacity: 1; stroke-width: 1px;"/><path class="ytick ticks crisp" d="M79,0h-5" transform="translate(0,84.5)" style="stroke: rgb(68, 68, 68); stroke-opacity: 1; stroke-width: 1px;"/><g class="ytick"><text text-anchor="end" x="71.6" y="4.199999999999999" transform="translate(0,159.5)" style="font-family: 'Open Sans', verdana, arial, sans-serif; font-size: 12px; fill: rgb(36, 36, 36); fill-opacity: 1; white-space: pre; opacity: 1;">250</text></g><g class="ytick"><text text-anchor="end" x="71.6" y="4.199999999999999" style="font-family: 'Open Sans', verdana, arial, sans-serif; font-size: 12px; fill: rgb(36, 36, 36); fill-opacity: 1; white-space: pre; opacity: 1;" transform="translate(0,84.5)">300</text></g></g><g class="overaxes-above"/></g><g class="subplot x2y2"><g class="layer-subplot"><g class="shapelayer"/><g class="imagelayer"/></g><g class="minor-gridlayer"><g class="x2"/><g class="y2"/></g><g class="gridlayer"><g class="x2"/><g class="y2"><path class="y2grid crisp" transform="translate(0,159.5)" d="M244.73,0h158.27" style="stroke: rgb(232, 232, 232); stroke-opacity: 1; stroke-width: 1px;"/><path class="y2grid crisp" transform="translate(0,84.5)" d="M244.73,0h158.27" style="stroke: rgb(232, 232, 232); stroke-opacity: 1; stroke-width: 1px;"/></g></g><g class="zerolinelayer"/><path class="xlines-below"/><path class="ylines-below"/><g class="overlines-below"/><g class="xaxislayer-below"/><g class="yaxislayer-below"/><g class="overaxes-below"/><g class="plot" transform="translate(244.73,60)" clip-path="url(#clip647b98x2y2plot)"><g class="scatterlayer mlayer"><g class="trace scatter trace65322e" style="stroke-miterlimit: 2; opacity: 1;"><g class="fills"/><g class="errorbars"/><g class="lines"><path class="js-line" d="M0,152L1.33,138.5L1.77,107L2.66,96.5L3.1,101L4.43,89L4.88,89L5.32,89L5.76,92L6.21,83L6.65,84.5L7.09,81.5L7.54,81.5L7.98,80L8.42,80L8.87,74L9.75,75.5L10.2,75.5L10.64,77L11.08,72.5L11.53,77L11.97,72.5L12.41,77L12.86,75.5L13.3,75.5L13.74,72.5L14.19,81.5L15.07,72.5L15.52,74L16.4,72.5L16.85,75.5L17.29,81.5L17.73,72.5L18.18,69.5L18.62,72.5L19.06,75.5L19.51,74L19.95,69.5L20.39,75.5L20.84,69.5L21.28,69.5L21.72,78.5L22.61,68L23.05,69.5L23.5,68L23.94,71L24.83,66.5L25.27,68L25.71,68L26.16,69.5L27.04,66.5L27.49,68L28.37,74L28.82,66.5L29.26,74L29.7,69.5L30.15,65L30.59,77L31.03,66.5L31.92,69.5L32.36,66.5L32.81,72.5L33.25,68L33.69,66.5L34.14,69.5L35.47,63.5L35.91,66.5L36.8,66.5L37.24,69.5L38.57,65L39.01,69.5L39.9,63.5L40.34,66.5L40.79,68L41.23,63.5L41.67,68L42.12,65L42.56,65L43,75.5L43.45,66.5L43.89,75.5L44.33,68L45.22,74L45.66,63.5L46.11,62L46.55,65L47.44,74L47.88,68L48.32,65L48.77,68L49.21,63.5L49.65,65L50.1,66.5L50.98,72.5L51.43,69.5L51.87,72.5L52.31,69.5L53.2,62L53.64,68L54.09,68L54.53,65L56.3,80L56.75,80L58.08,69.5L58.52,71L58.96,69.5L59.41,71L59.85,71L60.29,72.5L60.74,68L61.18,75.5L61.62,75.5L62.07,71L62.95,71L63.4,72.5L64.28,65L64.73,66.5L66.06,62L66.5,62L66.94,62L67.39,63.5L68.27,62L68.72,68L69.16,62L69.6,65L70.05,63.5L70.49,63.5L70.93,68L71.38,62L71.82,63.5L72.26,62L73.59,66.5L74.04,72.5L74.48,63.5L74.92,65L75.37,77L76.7,60.5L77.14,68L77.58,68L78.03,66.5L78.47,63.5L78.91,66.5L79.8,59L80.24,59L80.69,60.5L81.13,68L81.57,66.5L82.02,69.5L83.35,74L83.79,75.5L84.68,62L85.12,62L85.56,65L86.01,63.5L86.45,60.5L87.78,60.5L88.22,62L88.67,62L89.11,65L89.55,68L90,62L90.44,62L90.88,60.5L91.77,63.5L92.21,60.5L93.1,60.5L93.54,59L94.43,62L94.87,60.5L95.32,62L95.76,60.5L96.65,65L97.09,74L98.86,63.5L99.31,66.5L100.19,59L100.64,65L101.08,65L101.52,60.5L102.85,81.5L103.3,66.5L103.74,60.5L104.18,63.5L104.63,65L105.07,65L105.51,60.5L106.84,68L107.29,66.5L107.73,68L108.17,78.5L109.06,65L109.5,63.5L109.95,66.5L110.39,63.5L110.83,59L111.28,60.5L111.72,65L113.05,59L113.49,63.5L113.94,66.5L114.38,62L114.82,62L115.27,65L116.6,60.5L117.04,60.5L117.93,60.5L118.37,62L119.26,59L119.7,60.5L120.14,62L120.59,59L121.03,59L121.47,62L122.8,59L123.25,59L123.69,65L124.13,62L124.58,59L125.02,60.5L125.46,65L126.35,62L126.79,62L127.24,60.5L127.68,71L128.12,59L128.57,62L129.01,59L129.9,62L130.34,60.5L131.23,62L131.67,60.5L132.11,60.5L132.56,59L133.44,57.5L133.89,57.5L134.33,56L134.77,60.5L135.22,57.5L135.66,62L136.55,56L136.99,57.5L137.43,59L137.88,65L139.21,57.5L139.65,57.5L140.54,63.5L140.98,59L141.42,62L141.87,57.5L142.75,63.5L143.2,60.5L144.08,57.5L144.53,60.5L144.97,57.5L145.41,62L145.86,60.5L146.3,62L146.74,62L147.19,60.5L147.63,59L148.07,63.5L148.52,78.5L148.96,66.5L150.29,62L150.73,62L151.18,63.5L151.62,60.5L152.06,59L152.51,54.5L153.39,54.5L153.84,56L154.28,56L154.72,57.5L156.94,57.5L157.38,66.5L157.83,68L158.27,78.5" style="vector-effect: non-scaling-stroke; fill: none; stroke: rgb(13, 8, 135); stroke-opacity: 1; stroke-width: 2px; opacity: 1;"/></g><g class="points"/><g class="text"/></g></g></g><g class="overplot"/><path class="xlines-above crisp" d="M243.73,220.5H403" style="fill: none; stroke-width: 1px; stroke: rgb(36, 36, 36); stroke-opacity: 1;"/><path class="ylines-above crisp" d="M244.23,60V220" style="fill: none; stroke-width: 1px; stroke: rgb(36, 36, 36); stroke-opacity: 1;"/><g class="overlines-above"/><g class="xaxislayer-above"><path class="x2tick ticks crisp" d="M0,221v5" transform="translate(288.62,0)" style="stroke: rgb(68, 68, 68); stroke-opacity: 1; stroke-width: 1px;"/><path class="x2tick ticks crisp" d="M0,221v5" transform="translate(332.95,0)" style="stroke: rgb(68, 68, 68); stroke-opacity: 1; stroke-width: 1px;"/><path class="x2tick ticks crisp" d="M0,221v5" transform="translate(377.28999999999996,0)" style="stroke: rgb(68, 68, 68); stroke-opacity: 1; stroke-width: 1px;"/><g class="x2tick"><text text-anchor="middle" x="0" y="240.4" transform="translate(288.62,0)" style="font-family: 'Open Sans', verdana, arial, sans-serif; font-size: 12px; fill: rgb(36, 36, 36); fill-opacity: 1; white-space: pre; opacity: 1;">100</text></g><g class="x2tick"><text text-anchor="middle" x="0" y="240.4" style="font-family: 'Open Sans', verdana, arial, sans-serif; font-size: 12px; fill: rgb(36, 36, 36); fill-opacity: 1; white-space: pre; opacity: 1;" transform="translate(332.95,0)">200</text></g><g class="x2tick"><text text-anchor="middle" x="0" y="240.4" style="font-family: 'Open Sans', verdana, arial, sans-serif; font-size: 12px; fill: rgb(36, 36, 36); fill-opacity: 1; white-space: pre; opacity: 1;" transform="translate(377.28999999999996,0)">300</text></g></g><g class="yaxislayer-above"><path class="y2tick ticks crisp" d="M243.73,0h-5" transform="translate(0,159.5)" style="stroke: rgb(68, 68, 68); stroke-opacity: 1; stroke-width: 1px;"/><path class="y2tick ticks crisp" d="M243.73,0h-5" transform="translate(0,84.5)" style="stroke: rgb(68, 68, 68); stroke-opacity: 1; stroke-width: 1px;"/></g><g class="overaxes-above"/></g></g><g class="polarlayer"/><g class="smithlayer"/><g class="ternarylayer"/><g class="geolayer"/><g class="funnelarealayer"/><g class="pielayer"/><g class="iciclelayer"/><g class="treemaplayer"/><g class="sunburstlayer"/><g class="glimages"/><defs id="topdefs-647b98"><g class="clips"/><clipPath id="legend647b98"><rect width="79" height="48" x="0" y="0"/></clipPath></defs><g class="layer-above"><g class="imagelayer"/><g class="shapelayer"/></g><g class="infolayer"><g class="legend" pointer-events="all" transform="translate(409.46,60)"><rect class="bg" shape-rendering="crispEdges" width="79" height="48" x="0" y="0" style="stroke: rgb(68, 68, 68); stroke-opacity: 1; fill: rgb(255, 255, 255); fill-opacity: 1; stroke-width: 0px;"/><g class="scrollbox" transform="" clip-path="url(#legend647b98)"><text class="legendtitletext" text-anchor="start" x="2" y="18.2" style="font-family: 'Open Sans', verdana, arial, sans-serif; font-size: 14px; fill: rgb(36, 36, 36); fill-opacity: 1; white-space: pre;">DMS_conc</text><g class="groups" transform=""><g class="traces" transform="translate(0,32.7)" style="opacity: 1;"><text class="legendtext" text-anchor="start" x="40" y="4.680000000000001" style="font-family: 'Open Sans', verdana, arial, sans-serif; font-size: 12px; fill: rgb(36, 36, 36); fill-opacity: 1; white-space: pre;">85mM</text><g class="layers" style="opacity: 1;"><g class="legendfill"/><g class="legendlines"><path class="js-line" d="M5,0h30" style="fill: none; stroke: rgb(13, 8, 135); stroke-opacity: 1; stroke-width: 2px;"/></g><g class="legendsymbols"><g class="legendpoints"/></g></g><rect class="legendtoggle" x="0" y="-9.5" width="73.34375" height="19" style="fill: rgb(0, 0, 0); fill-opacity: 0;"/></g></g></g><rect class="scrollbar" rx="20" ry="3" width="0" height="0" x="0" y="0" style="fill: rgb(128, 139, 164); fill-opacity: 1;"/></g><g class="g-gtitle"><text class="gtitle" x="25" y="30" text-anchor="start" dy="0em" style="font-family: 'Open Sans', verdana, arial, sans-serif; font-size: 17px; fill: rgb(36, 36, 36); opacity: 1; font-weight: normal; white-space: pre;">RT3_Nef19</text></g><g class="g-xtitle"><text class="xtitle" x="159.135" y="268.20625" text-anchor="middle" style="font-family: 'Open Sans', verdana, arial, sans-serif; font-size: 14px; fill: rgb(36, 36, 36); opacity: 1; font-weight: normal; white-space: pre;">position</text></g><g class="g-x2title"><text class="x2title" x="323.865" y="268.20625" text-anchor="middle" style="font-family: 'Open Sans', verdana, arial, sans-serif; font-size: 14px; fill: rgb(36, 36, 36); opacity: 1; font-weight: normal; white-space: pre;">position</text></g><g class="g-ytitle"><text class="ytitle" transform="rotate(-90,26.778125000000003,140)" x="26.778125000000003" y="140" text-anchor="middle" style="font-family: 'Open Sans', verdana, arial, sans-serif; font-size: 14px; fill: rgb(36, 36, 36); opacity: 1; font-weight: normal; white-space: pre;">coverage</text></g><g class="g-y2title"/><g class="annotation" data-index="0" style="opacity: 1;"><g class="annotation-text-g" transform="rotate(0,159.135,51)"><g class="cursor-pointer" transform="translate(143,42)"><rect class="bg" x="0.5" y="0.5" width="32" height="17" style="stroke-width: 1px; stroke: rgb(0, 0, 0); stroke-opacity: 0; fill: rgb(0, 0, 0); fill-opacity: 0;"/><text class="annotation-text" text-anchor="middle" x="16.34375" y="13" style="font-family: 'Open Sans', verdana, arial, sans-serif; font-size: 12px; fill: rgb(36, 36, 36); fill-opacity: 1; white-space: pre;">Rep1</text></g></g></g><g class="annotation" data-index="1" style="opacity: 1;"><g class="annotation-text-g" transform="rotate(0,323.865,51)"><g class="cursor-pointer" transform="translate(307,42)"><rect class="bg" x="0.5" y="0.5" width="32" height="17" style="stroke-width: 1px; stroke: rgb(0, 0, 0); stroke-opacity: 0; fill: rgb(0, 0, 0); fill-opacity: 0;"/><text class="annotation-text" text-anchor="middle" x="16.34375" y="13" style="font-family: 'Open Sans', verdana, arial, sans-serif; font-size: 12px; fill: rgb(36, 36, 36); fill-opacity: 1; white-space: pre;">Rep2</text></g></g></g></g></svg>